<svg width="3742" height="1333" xmlns="http://www.w3.org/2000/svg" xmlns:xlink="http://www.w3.org/1999/xlink" xml:space="preserve" overflow="hidden"><g transform="translate(-170 -235)"><path d="M254 1448.5C254 1392.44 299.443 1347 355.5 1347 411.557 1347 457 1392.44 457 1448.5 457 1504.56 411.557 1550 355.5 1550 299.443 1550 254 1504.56 254 1448.5Z" fill="#F6C6AD" fill-rule="evenodd"/><path d="M580 1448.5C580 1392.44 625.443 1347 681.5 1347 737.557 1347 783 1392.44 783 1448.5 783 1504.56 737.557 1550 681.5 1550 625.443 1550 580 1504.56 580 1448.5Z" fill="#F6C6AD" fill-rule="evenodd"/><path d="M580 1180.5C580 1124.44 625.443 1079 681.5 1079 737.557 1079 783 1124.44 783 1180.5 783 1236.56 737.557 1282 681.5 1282 625.443 1282 580 1236.56 580 1180.5Z" fill="#F6C6AD" fill-rule="evenodd"/><path d="M907 1448.5C907 1392.44 952.443 1347 1008.5 1347 1064.56 1347 1110 1392.44 1110 1448.5 1110 1504.56 1064.56 1550 1008.5 1550 952.443 1550 907 1504.56 907 1448.5Z" fill="#F6C6AD" fill-rule="evenodd"/><path d="M907 1180.5C907 1124.44 952.443 1079 1008.5 1079 1064.56 1079 1110 1124.44 1110 1180.5 1110 1236.56 1064.56 1282 1008.5 1282 952.443 1282 907 1236.56 907 1180.5Z" fill="#F6C6AD" fill-rule="evenodd"/><path d="M907 912.5C907 856.443 952.443 811 1008.5 811 1064.56 811 1110 856.443 1110 912.5 1110 968.557 1064.56 1014 1008.5 1014 952.443 1014 907 968.557 907 912.5Z" fill="#F6C6AD" fill-rule="evenodd"/><path d="M1233 1448.5C1233 1392.44 1278.44 1347 1334.5 1347 1390.56 1347 1436 1392.44 1436 1448.5 1436 1504.56 1390.56 1550 1334.5 1550 1278.44 1550 1233 1504.56 1233 1448.5Z" fill="#F6C6AD" fill-rule="evenodd"/><path d="M1233 1180.5C1233 1124.44 1278.44 1079 1334.5 1079 1390.56 1079 1436 1124.44 1436 1180.5 1436 1236.56 1390.56 1282 1334.5 1282 1278.44 1282 1233 1236.56 1233 1180.5Z" fill="#F6C6AD" fill-rule="evenodd"/><path d="M1233 910.5C1233 854.443 1278.44 809 1334.5 809 1390.56 809 1436 854.443 1436 910.5 1436 966.557 1390.56 1012 1334.5 1012 1278.44 1012 1233 966.557 1233 910.5Z" fill="#F6C6AD" fill-rule="evenodd"/><path d="M1559 1448.5C1559 1392.44 1604.67 1347 1661 1347 1717.33 1347 1763 1392.44 1763 1448.5 1763 1504.56 1717.33 1550 1661 1550 1604.67 1550 1559 1504.56 1559 1448.5Z" fill="#F6C6AD" fill-rule="evenodd"/><path d="M1559 1180.5C1559 1124.44 1604.67 1079 1661 1079 1717.33 1079 1763 1124.44 1763 1180.5 1763 1236.56 1717.33 1282 1661 1282 1604.67 1282 1559 1236.56 1559 1180.5Z" fill="#F6C6AD" fill-rule="evenodd"/><path d="M1559 912.5C1559 856.443 1604.67 811 1661 811 1717.33 811 1763 856.443 1763 912.5 1763 968.557 1717.33 1014 1661 1014 1604.67 1014 1559 968.557 1559 912.5Z" fill="#F6C6AD" fill-rule="evenodd"/><path d="M1559 645.5C1559 589.443 1604.67 544 1661 544 1717.33 544 1763 589.443 1763 645.5 1763 701.557 1717.33 747 1661 747 1604.67 747 1559 701.557 1559 645.5Z" fill="#F6C6AD" fill-rule="evenodd"/><rect x="239.5" y="1332.5" width="233" height="232" stroke="#DCEAF7" stroke-width="6.875" stroke-miterlimit="8" fill="none"/><rect x="892.5" y="797.5" width="232" height="232" stroke="#F2CFEE" stroke-width="6.875" stroke-miterlimit="8" fill="none"/><rect x="892.5" y="1065.5" width="232" height="232" stroke="#DCEAF7" stroke-width="6.875" stroke-miterlimit="8" fill="none"/><rect x="1545.5" y="529.5" width="232" height="232" stroke="#F2CFEE" stroke-width="6.875" stroke-miterlimit="8" fill="none"/><rect x="1547.5" y="792.5" width="232" height="232" stroke="#DCEAF7" stroke-width="6.875" stroke-miterlimit="8" fill="none"/><rect x="176.5" y="243.5" width="127" height="128" stroke="#F2CFEE" stroke-width="6.875" stroke-miterlimit="8" fill="none"/><text font-family="Cambria,Cambria_MSFontService,sans-serif" font-weight="400" font-size="83" transform="matrix(1 0 0 1 371.955 341)">Alice</text><rect x="173.5" y="473.5" width="128" height="128" stroke="#DCEAF7" stroke-width="6.875" stroke-miterlimit="8" fill="none"/><text font-family="Cambria,Cambria_MSFontService,sans-serif" font-weight="400" font-size="83" transform="matrix(1 0 0 1 371.955 559)">Bob</text><path d="M2383 1433.5C2383 1377.44 2428.44 1332 2484.5 1332 2540.56 1332 2586 1377.44 2586 1433.5 2586 1489.56 2540.56 1535 2484.5 1535 2428.44 1535 2383 1489.56 2383 1433.5Z" fill="#F6C6AD" fill-rule="evenodd"/><path d="M2709 1433.5C2709 1377.44 2754.44 1332 2810.5 1332 2866.56 1332 2912 1377.44 2912 1433.5 2912 1489.56 2866.56 1535 2810.5 1535 2754.44 1535 2709 1489.56 2709 1433.5Z" fill="#F6C6AD" fill-rule="evenodd"/><path d="M2709 1166.5C2709 1110.44 2754.44 1065 2810.5 1065 2866.56 1065 2912 1110.44 2912 1166.5 2912 1222.56 2866.56 1268 2810.5 1268 2754.44 1268 2709 1222.56 2709 1166.5Z" fill="#F6C6AD" fill-rule="evenodd"/><path d="M3035 1433.5C3035 1377.44 3080.67 1332 3137 1332 3193.33 1332 3239 1377.44 3239 1433.5 3239 1489.56 3193.33 1535 3137 1535 3080.67 1535 3035 1489.56 3035 1433.5Z" fill="#F6C6AD" fill-rule="evenodd"/><path d="M3035 1166.5C3035 1110.44 3080.67 1065 3137 1065 3193.33 1065 3239 1110.44 3239 1166.5 3239 1222.56 3193.33 1268 3137 1268 3080.67 1268 3035 1222.56 3035 1166.5Z" fill="#F6C6AD" fill-rule="evenodd"/><path d="M3035 898.5C3035 842.443 3080.67 797 3137 797 3193.33 797 3239 842.443 3239 898.5 3239 954.557 3193.33 1000 3137 1000 3080.67 1000 3035 954.557 3035 898.5Z" fill="#F6C6AD" fill-rule="evenodd"/><path d="M3362 1433.5C3362 1377.44 3407.44 1332 3463.5 1332 3519.56 1332 3565 1377.44 3565 1433.5 3565 1489.56 3519.56 1535 3463.5 1535 3407.44 1535 3362 1489.56 3362 1433.5Z" fill="#F6C6AD" fill-rule="evenodd"/><path d="M3362 1166.5C3362 1110.44 3407.44 1065 3463.5 1065 3519.56 1065 3565 1110.44 3565 1166.5 3565 1222.56 3519.56 1268 3463.5 1268 3407.44 1268 3362 1222.56 3362 1166.5Z" fill="#F6C6AD" fill-rule="evenodd"/><path d="M3362 895.5C3362 839.443 3407.44 794 3463.5 794 3519.56 794 3565 839.443 3565 895.5 3565 951.557 3519.56 997 3463.5 997 3407.44 997 3362 951.557 3362 895.5Z" fill="#F6C6AD" fill-rule="evenodd"/><path d="M3688 1433.5C3688 1377.44 3733.44 1332 3789.5 1332 3845.56 1332 3891 1377.44 3891 1433.5 3891 1489.56 3845.56 1535 3789.5 1535 3733.44 1535 3688 1489.56 3688 1433.5Z" fill="#F6C6AD" fill-rule="evenodd"/><path d="M3688 1166.5C3688 1110.44 3733.44 1065 3789.5 1065 3845.56 1065 3891 1110.44 3891 1166.5 3891 1222.56 3845.56 1268 3789.5 1268 3733.44 1268 3688 1222.56 3688 1166.5Z" fill="#F6C6AD" fill-rule="evenodd"/><path d="M3688 898.5C3688 842.443 3733.44 797 3789.5 797 3845.56 797 3891 842.443 3891 898.5 3891 954.557 3845.56 1000 3789.5 1000 3733.44 1000 3688 954.557 3688 898.5Z" fill="#F6C6AD" fill-rule="evenodd"/><path d="M3688 630.5C3688 574.443 3733.44 529 3789.5 529 3845.56 529 3891 574.443 3891 630.5 3891 686.557 3845.56 732 3789.5 732 3733.44 732 3688 686.557 3688 630.5Z" fill="#F6C6AD" fill-rule="evenodd"/><rect x="2695.5" y="1050.5" width="232" height="232" stroke="#DCEAF7" stroke-width="6.875" stroke-miterlimit="8" fill="none"/><rect x="2368.5" y="1318.5" width="232" height="232" stroke="#F2CFEE" stroke-width="6.875" stroke-miterlimit="8" fill="none"/><rect x="3021.5" y="782.5" width="232" height="232" stroke="#DCEAF7" stroke-width="6.875" stroke-miterlimit="8" fill="none"/><rect x="3674.5" y="515.5" width="232" height="232" stroke="#F2CFEE" stroke-width="6.875" stroke-miterlimit="8" fill="none"/><rect x="3676.5" y="777.5" width="232" height="232" stroke="#DCEAF7" stroke-width="6.875" stroke-miterlimit="8" fill="none"/><rect x="3347.5" y="782.5" width="232" height="232" stroke="#F2CFEE" stroke-width="6.875" stroke-miterlimit="8" fill="none"/><rect x="3021.5" y="1050.5" width="232" height="232" stroke="#DCEAF7" stroke-width="6.875" stroke-miterlimit="8" fill="none"/><rect x="3347.5" y="1050.5" width="232" height="232" stroke="#F2CFEE" stroke-width="6.875" stroke-miterlimit="8" fill="none"/></g></svg>