<svg width="2602" height="1484" xmlns="http://www.w3.org/2000/svg" xmlns:xlink="http://www.w3.org/1999/xlink" xml:space="preserve" overflow="hidden"><g transform="translate(-512 -262)"><rect x="515.5" y="265.5" width="2586" height="225" stroke="#47D45A" stroke-width="6.875" stroke-miterlimit="8" fill="none"/><path d="M533 373.5C533 321.309 575.309 279 627.5 279 679.691 279 722 321.309 722 373.5 722 425.691 679.691 468 627.5 468 575.309 468 533 425.691 533 373.5Z" fill="#FFC000" fill-rule="evenodd"/><path d="M747 373.5C747 321.309 789.309 279 841.5 279 893.691 279 936 321.309 936 373.5 936 425.691 893.691 468 841.5 468 789.309 468 747 425.691 747 373.5Z" fill="#FFC000" fill-rule="evenodd"/><path d="M961 373.5C961 321.309 1003.31 279 1055.5 279 1107.69 279 1150 321.309 1150 373.5 1150 425.691 1107.69 468 1055.5 468 1003.31 468 961 425.691 961 373.5Z" fill="#FFC000" fill-rule="evenodd"/><path d="M1175 373.5C1175 321.309 1217.31 279 1269.5 279 1321.69 279 1364 321.309 1364 373.5 1364 425.691 1321.69 468 1269.5 468 1217.31 468 1175 425.691 1175 373.5Z" fill="#4E95D9" fill-rule="evenodd"/><path d="M1389 373.5C1389 321.309 1431.09 279 1483 279 1534.91 279 1577 321.309 1577 373.5 1577 425.691 1534.91 468 1483 468 1431.09 468 1389 425.691 1389 373.5Z" fill="#4E95D9" fill-rule="evenodd"/><path d="M1603 373.5C1603 321.309 1645.09 279 1697 279 1748.91 279 1791 321.309 1791 373.5 1791 425.691 1748.91 468 1697 468 1645.09 468 1603 425.691 1603 373.5Z" fill="#4E95D9" fill-rule="evenodd"/><path d="M1817 373.5C1817 321.309 1859.09 279 1911 279 1962.91 279 2005 321.309 2005 373.5 2005 425.691 1962.91 468 1911 468 1859.09 468 1817 425.691 1817 373.5Z" fill="#4E95D9" fill-rule="evenodd"/><path d="M2031 373.5C2031 321.309 2073.09 279 2125 279 2176.91 279 2219 321.309 2219 373.5 2219 425.691 2176.91 468 2125 468 2073.09 468 2031 425.691 2031 373.5Z" fill="#4E95D9" fill-rule="evenodd"/><path d="M2245 373.5C2245 321.309 2287.09 279 2339 279 2390.91 279 2433 321.309 2433 373.5 2433 425.691 2390.91 468 2339 468 2287.09 468 2245 425.691 2245 373.5Z" fill="#4E95D9" fill-rule="evenodd"/><path d="M2459 373.5C2459 321.309 2501.08 279 2553 279 2604.91 279 2647 321.309 2647 373.5 2647 425.691 2604.91 468 2553 468 2501.08 468 2459 425.691 2459 373.5Z" fill="#4E95D9" fill-rule="evenodd"/><path d="M2673 373.5C2673 321.309 2715.09 279 2767 279 2818.91 279 2861 321.309 2861 373.5 2861 425.691 2818.91 468 2767 468 2715.09 468 2673 425.691 2673 373.5Z" fill="#4E95D9" fill-rule="evenodd"/><path d="M2887 373.5C2887 321.309 2929.09 279 2981 279 3032.91 279 3075 321.309 3075 373.5 3075 425.691 3032.91 468 2981 468 2929.09 468 2887 425.691 2887 373.5Z" fill="#4E95D9" fill-rule="evenodd"/><rect x="519.5" y="682.5" width="2585" height="225" stroke="#47D45A" stroke-width="6.875" stroke-miterlimit="8" fill="none"/><path d="M537 791C537 739.085 579.085 697 631 697 682.915 697 725 739.085 725 791 725 842.915 682.915 885 631 885 579.085 885 537 842.915 537 791Z" fill="#4E95D9" fill-rule="evenodd"/><path d="M751 791C751 739.085 793.085 697 845 697 896.915 697 939 739.085 939 791 939 842.915 896.915 885 845 885 793.085 885 751 842.915 751 791Z" fill="#FFC000" fill-rule="evenodd"/><path d="M965 791C965 739.085 1007.09 697 1059 697 1110.91 697 1153 739.085 1153 791 1153 842.915 1110.91 885 1059 885 1007.09 885 965 842.915 965 791Z" fill="#FFC000" fill-rule="evenodd"/><path d="M1179 791C1179 739.085 1221.09 697 1273 697 1324.91 697 1367 739.085 1367 791 1367 842.915 1324.91 885 1273 885 1221.09 885 1179 842.915 1179 791Z" fill="#FFC000" fill-rule="evenodd"/><path d="M1393 791C1393 739.085 1435.09 697 1487 697 1538.91 697 1581 739.085 1581 791 1581 842.915 1538.91 885 1487 885 1435.09 885 1393 842.915 1393 791Z" fill="#4E95D9" fill-rule="evenodd"/><path d="M1606 791C1606 739.085 1648.31 697 1700.5 697 1752.69 697 1795 739.085 1795 791 1795 842.915 1752.69 885 1700.5 885 1648.31 885 1606 842.915 1606 791Z" fill="#4E95D9" fill-rule="evenodd"/><path d="M1820 791C1820 739.085 1862.31 697 1914.5 697 1966.69 697 2009 739.085 2009 791 2009 842.915 1966.69 885 1914.5 885 1862.31 885 1820 842.915 1820 791Z" fill="#4E95D9" fill-rule="evenodd"/><path d="M2034 791C2034 739.085 2076.31 697 2128.5 697 2180.69 697 2223 739.085 2223 791 2223 842.915 2180.69 885 2128.5 885 2076.31 885 2034 842.915 2034 791Z" fill="#4E95D9" fill-rule="evenodd"/><path d="M2248 791C2248 739.085 2290.31 697 2342.5 697 2394.69 697 2437 739.085 2437 791 2437 842.915 2394.69 885 2342.5 885 2290.31 885 2248 842.915 2248 791Z" fill="#4E95D9" fill-rule="evenodd"/><path d="M2462 791C2462 739.085 2504.31 697 2556.5 697 2608.69 697 2651 739.085 2651 791 2651 842.915 2608.69 885 2556.5 885 2504.31 885 2462 842.915 2462 791Z" fill="#4E95D9" fill-rule="evenodd"/><path d="M2676 791C2676 739.085 2718.31 697 2770.5 697 2822.69 697 2865 739.085 2865 791 2865 842.915 2822.69 885 2770.5 885 2718.31 885 2676 842.915 2676 791Z" fill="#4E95D9" fill-rule="evenodd"/><path d="M2890 791C2890 739.085 2932.31 697 2984.5 697 3036.69 697 3079 739.085 3079 791 3079 842.915 3036.69 885 2984.5 885 2932.31 885 2890 842.915 2890 791Z" fill="#4E95D9" fill-rule="evenodd"/><rect x="520.5" y="1100.5" width="2586" height="225" stroke="#47D45A" stroke-width="6.875" stroke-miterlimit="8" fill="none"/><path d="M539 1209C539 1157.09 581.085 1115 633 1115 684.915 1115 727 1157.09 727 1209 727 1260.91 684.915 1303 633 1303 581.085 1303 539 1260.91 539 1209Z" fill="#4E95D9" fill-rule="evenodd"/><path d="M752 1209C752 1157.09 794.309 1115 846.5 1115 898.691 1115 941 1157.09 941 1209 941 1260.91 898.691 1303 846.5 1303 794.309 1303 752 1260.91 752 1209Z" fill="#4E95D9" fill-rule="evenodd"/><path d="M966 1209C966 1157.09 1008.31 1115 1060.5 1115 1112.69 1115 1155 1157.09 1155 1209 1155 1260.91 1112.69 1303 1060.5 1303 1008.31 1303 966 1260.91 966 1209Z" fill="#FFC000" fill-rule="evenodd"/><path d="M1180 1209C1180 1157.09 1222.31 1115 1274.5 1115 1326.69 1115 1369 1157.09 1369 1209 1369 1260.91 1326.69 1303 1274.5 1303 1222.31 1303 1180 1260.91 1180 1209Z" fill="#FFC000" fill-rule="evenodd"/><path d="M1394 1209C1394 1157.09 1436.31 1115 1488.5 1115 1540.69 1115 1583 1157.09 1583 1209 1583 1260.91 1540.69 1303 1488.5 1303 1436.31 1303 1394 1260.91 1394 1209Z" fill="#FFC000" fill-rule="evenodd"/><path d="M1608 1209C1608 1157.09 1650.31 1115 1702.5 1115 1754.69 1115 1797 1157.09 1797 1209 1797 1260.91 1754.69 1303 1702.5 1303 1650.31 1303 1608 1260.91 1608 1209Z" fill="#4E95D9" fill-rule="evenodd"/><path d="M1822 1209C1822 1157.09 1864.31 1115 1916.5 1115 1968.69 1115 2011 1157.09 2011 1209 2011 1260.91 1968.69 1303 1916.5 1303 1864.31 1303 1822 1260.91 1822 1209Z" fill="#4E95D9" fill-rule="evenodd"/><path d="M2036 1209C2036 1157.09 2078.31 1115 2130.5 1115 2182.69 1115 2225 1157.09 2225 1209 2225 1260.91 2182.69 1303 2130.5 1303 2078.31 1303 2036 1260.91 2036 1209Z" fill="#4E95D9" fill-rule="evenodd"/><path d="M2250 1209C2250 1157.09 2292.31 1115 2344.5 1115 2396.69 1115 2439 1157.09 2439 1209 2439 1260.91 2396.69 1303 2344.5 1303 2292.31 1303 2250 1260.91 2250 1209Z" fill="#4E95D9" fill-rule="evenodd"/><path d="M2464 1209C2464 1157.09 2506.31 1115 2558.5 1115 2610.69 1115 2653 1157.09 2653 1209 2653 1260.91 2610.69 1303 2558.5 1303 2506.31 1303 2464 1260.91 2464 1209Z" fill="#4E95D9" fill-rule="evenodd"/><path d="M2678 1209C2678 1157.09 2720.31 1115 2772.5 1115 2824.69 1115 2867 1157.09 2867 1209 2867 1260.91 2824.69 1303 2772.5 1303 2720.31 1303 2678 1260.91 2678 1209Z" fill="#4E95D9" fill-rule="evenodd"/><path d="M2892 1209C2892 1157.09 2934.31 1115 2986.5 1115 3038.69 1115 3081 1157.09 3081 1209 3081 1260.91 3038.69 1303 2986.5 1303 2934.31 1303 2892 1260.91 2892 1209Z" fill="#4E95D9" fill-rule="evenodd"/><rect x="524.5" y="1518.5" width="2586" height="224" stroke="#47D45A" stroke-width="6.875" stroke-miterlimit="8" fill="none"/><path d="M542 1626.5C542 1574.31 584.309 1532 636.5 1532 688.691 1532 731 1574.31 731 1626.5 731 1678.69 688.691 1721 636.5 1721 584.309 1721 542 1678.69 542 1626.5Z" fill="#4E95D9" fill-rule="evenodd"/><path d="M756 1626.5C756 1574.31 798.309 1532 850.5 1532 902.691 1532 945 1574.31 945 1626.5 945 1678.69 902.691 1721 850.5 1721 798.309 1721 756 1678.69 756 1626.5Z" fill="#4E95D9" fill-rule="evenodd"/><path d="M970 1626.5C970 1574.31 1012.31 1532 1064.5 1532 1116.69 1532 1159 1574.31 1159 1626.5 1159 1678.69 1116.69 1721 1064.5 1721 1012.31 1721 970 1678.69 970 1626.5Z" fill="#4E95D9" fill-rule="evenodd"/><path d="M1184 1626.5C1184 1574.31 1226.31 1532 1278.5 1532 1330.69 1532 1373 1574.31 1373 1626.5 1373 1678.69 1330.69 1721 1278.5 1721 1226.31 1721 1184 1678.69 1184 1626.5Z" fill="#FFC000" fill-rule="evenodd"/><path d="M1398 1626.5C1398 1574.31 1440.31 1532 1492.5 1532 1544.69 1532 1587 1574.31 1587 1626.5 1587 1678.69 1544.69 1721 1492.5 1721 1440.31 1721 1398 1678.69 1398 1626.5Z" fill="#FFC000" fill-rule="evenodd"/><path d="M1612 1626.5C1612 1574.31 1654.09 1532 1706 1532 1757.91 1532 1800 1574.31 1800 1626.5 1800 1678.69 1757.91 1721 1706 1721 1654.09 1721 1612 1678.69 1612 1626.5Z" fill="#FFC000" fill-rule="evenodd"/><path d="M1826 1626.5C1826 1574.31 1868.09 1532 1920 1532 1971.91 1532 2014 1574.31 2014 1626.5 2014 1678.69 1971.91 1721 1920 1721 1868.09 1721 1826 1678.69 1826 1626.5Z" fill="#4E95D9" fill-rule="evenodd"/><path d="M2040 1626.5C2040 1574.31 2082.09 1532 2134 1532 2185.91 1532 2228 1574.31 2228 1626.5 2228 1678.69 2185.91 1721 2134 1721 2082.09 1721 2040 1678.69 2040 1626.5Z" fill="#4E95D9" fill-rule="evenodd"/><path d="M2254 1626.5C2254 1574.31 2296.09 1532 2348 1532 2399.91 1532 2442 1574.31 2442 1626.5 2442 1678.69 2399.91 1721 2348 1721 2296.09 1721 2254 1678.69 2254 1626.5Z" fill="#4E95D9" fill-rule="evenodd"/><path d="M2468 1626.5C2468 1574.31 2510.09 1532 2562 1532 2613.92 1532 2656 1574.31 2656 1626.5 2656 1678.69 2613.92 1721 2562 1721 2510.09 1721 2468 1678.69 2468 1626.5Z" fill="#4E95D9" fill-rule="evenodd"/><path d="M2682 1626.5C2682 1574.31 2724.09 1532 2776 1532 2827.91 1532 2870 1574.31 2870 1626.5 2870 1678.69 2827.91 1721 2776 1721 2724.09 1721 2682 1678.69 2682 1626.5Z" fill="#4E95D9" fill-rule="evenodd"/><path d="M2896 1626.5C2896 1574.31 2938.09 1532 2990 1532 3041.91 1532 3084 1574.31 3084 1626.5 3084 1678.69 3041.91 1721 2990 1721 2938.09 1721 2896 1678.69 2896 1626.5Z" fill="#4E95D9" fill-rule="evenodd"/></g></svg>