<svg width="3467" height="2057" xmlns="http://www.w3.org/2000/svg" xmlns:xlink="http://www.w3.org/1999/xlink" xml:space="preserve" overflow="hidden"><g transform="translate(-266 -132)"><path d="M268.5 450C268.5 400.018 309.242 359.5 359.5 359.5 409.758 359.5 450.5 400.018 450.5 450 450.5 499.982 409.758 540.5 359.5 540.5 309.242 540.5 268.5 499.982 268.5 450Z" stroke="#4472C4" stroke-width="4.58333" stroke-miterlimit="8" fill="#E7E6E6" fill-rule="evenodd"/><path d="M670.5 450C670.5 400.018 711.018 359.5 761 359.5 810.982 359.5 851.5 400.018 851.5 450 851.5 499.982 810.982 540.5 761 540.5 711.018 540.5 670.5 499.982 670.5 450Z" stroke="#4472C4" stroke-width="4.58333" stroke-miterlimit="8" fill="#E7E6E6" fill-rule="evenodd"/><path d="M1071.5 450C1071.5 400.018 1112.24 359.5 1162.5 359.5 1212.76 359.5 1253.5 400.018 1253.5 450 1253.5 499.982 1212.76 540.5 1162.5 540.5 1112.24 540.5 1071.5 499.982 1071.5 450Z" stroke="#4472C4" stroke-width="4.58333" stroke-miterlimit="8" fill="#E7E6E6" fill-rule="evenodd"/><path d="M1473.5 450C1473.5 400.018 1514.02 359.5 1564 359.5 1613.98 359.5 1654.5 400.018 1654.5 450 1654.5 499.982 1613.98 540.5 1564 540.5 1514.02 540.5 1473.5 499.982 1473.5 450Z" stroke="#4472C4" stroke-width="4.58333" stroke-miterlimit="8" fill="#E7E6E6" fill-rule="evenodd"/><path d="M1874.5 450C1874.5 400.018 1915.24 359.5 1965.5 359.5 2015.76 359.5 2056.5 400.018 2056.5 450 2056.5 499.982 2015.76 540.5 1965.5 540.5 1915.24 540.5 1874.5 499.982 1874.5 450Z" stroke="#4472C4" stroke-width="4.58333" stroke-miterlimit="8" fill="#E7E6E6" fill-rule="evenodd"/><path d="M268.5 795C268.5 745.018 309.242 704.5 359.5 704.5 409.758 704.5 450.5 745.018 450.5 795 450.5 844.982 409.758 885.5 359.5 885.5 309.242 885.5 268.5 844.982 268.5 795Z" stroke="#4472C4" stroke-width="4.58333" stroke-miterlimit="8" fill="#FFE699" fill-rule="evenodd"/><path d="M670.5 795C670.5 745.018 711.018 704.5 761 704.5 810.982 704.5 851.5 745.018 851.5 795 851.5 844.982 810.982 885.5 761 885.5 711.018 885.5 670.5 844.982 670.5 795Z" stroke="#4472C4" stroke-width="4.58333" stroke-miterlimit="8" fill="#FFE699" fill-rule="evenodd"/><path d="M1071.5 795C1071.5 745.018 1112.24 704.5 1162.5 704.5 1212.76 704.5 1253.5 745.018 1253.5 795 1253.5 844.982 1212.76 885.5 1162.5 885.5 1112.24 885.5 1071.5 844.982 1071.5 795Z" stroke="#4472C4" stroke-width="4.58333" stroke-miterlimit="8" fill="#FFE699" fill-rule="evenodd"/><path d="M1473.5 795C1473.5 745.018 1514.02 704.5 1564 704.5 1613.98 704.5 1654.5 745.018 1654.5 795 1654.5 844.982 1613.98 885.5 1564 885.5 1514.02 885.5 1473.5 844.982 1473.5 795Z" stroke="#4472C4" stroke-width="4.58333" stroke-miterlimit="8" fill="#FFE699" fill-rule="evenodd"/><path d="M1874.5 795C1874.5 745.018 1915.24 704.5 1965.5 704.5 2015.76 704.5 2056.5 745.018 2056.5 795 2056.5 844.982 2015.76 885.5 1965.5 885.5 1915.24 885.5 1874.5 844.982 1874.5 795Z" stroke="#4472C4" stroke-width="4.58333" stroke-miterlimit="8" fill="#FFE699" fill-rule="evenodd"/><path d="M268.5 1140.5C268.5 1090.24 309.242 1049.5 359.5 1049.5 409.758 1049.5 450.5 1090.24 450.5 1140.5 450.5 1190.76 409.758 1231.5 359.5 1231.5 309.242 1231.5 268.5 1190.76 268.5 1140.5Z" stroke="#4472C4" stroke-width="4.58333" stroke-miterlimit="8" fill="#FFE699" fill-rule="evenodd"/><path d="M670.5 1140.5C670.5 1090.24 711.018 1049.5 761 1049.5 810.982 1049.5 851.5 1090.24 851.5 1140.5 851.5 1190.76 810.982 1231.5 761 1231.5 711.018 1231.5 670.5 1190.76 670.5 1140.5Z" stroke="#4472C4" stroke-width="4.58333" stroke-miterlimit="8" fill="#E7E6E6" fill-rule="evenodd"/><path d="M1071.5 1140.5C1071.5 1090.24 1112.24 1049.5 1162.5 1049.5 1212.76 1049.5 1253.5 1090.24 1253.5 1140.5 1253.5 1190.76 1212.76 1231.5 1162.5 1231.5 1112.24 1231.5 1071.5 1190.76 1071.5 1140.5Z" stroke="#4472C4" stroke-width="4.58333" stroke-miterlimit="8" fill="#FFE699" fill-rule="evenodd"/><path d="M1473.5 1140.5C1473.5 1090.24 1514.02 1049.5 1564 1049.5 1613.98 1049.5 1654.5 1090.24 1654.5 1140.5 1654.5 1190.76 1613.98 1231.5 1564 1231.5 1514.02 1231.5 1473.5 1190.76 1473.5 1140.5Z" stroke="#4472C4" stroke-width="4.58333" stroke-miterlimit="8" fill="#E7E6E6" fill-rule="evenodd"/><path d="M1874.5 1140.5C1874.5 1090.24 1915.24 1049.5 1965.5 1049.5 2015.76 1049.5 2056.5 1090.24 2056.5 1140.5 2056.5 1190.76 2015.76 1231.5 1965.5 1231.5 1915.24 1231.5 1874.5 1190.76 1874.5 1140.5Z" stroke="#4472C4" stroke-width="4.58333" stroke-miterlimit="8" fill="#FFE699" fill-rule="evenodd"/><text font-family="qiantubifengshouxieti,qiantubifengshouxieti_MSFontService,sans-serif" font-weight="400" font-size="92" transform="matrix(1 0 0 1 337.615 252)">1</text><text font-family="qiantubifengshouxieti,qiantubifengshouxieti_MSFontService,sans-serif" font-weight="400" font-size="92" transform="matrix(1 0 0 1 738.857 252)">2</text><text font-family="qiantubifengshouxieti,qiantubifengshouxieti_MSFontService,sans-serif" font-weight="400" font-size="92" transform="matrix(1 0 0 1 1140.1 252)">3</text><text font-family="qiantubifengshouxieti,qiantubifengshouxieti_MSFontService,sans-serif" font-weight="400" font-size="92" transform="matrix(1 0 0 1 1541.34 252)">4</text><text font-family="qiantubifengshouxieti,qiantubifengshouxieti_MSFontService,sans-serif" font-weight="400" font-size="92" transform="matrix(1 0 0 1 1942.58 252)">5</text><path d="M268.5 1485.5C268.5 1435.24 309.242 1394.5 359.5 1394.5 409.758 1394.5 450.5 1435.24 450.5 1485.5 450.5 1535.76 409.758 1576.5 359.5 1576.5 309.242 1576.5 268.5 1535.76 268.5 1485.5Z" stroke="#4472C4" stroke-width="4.58333" stroke-miterlimit="8" fill="#FFE699" fill-rule="evenodd"/><path d="M670.5 1485.5C670.5 1435.24 711.018 1394.5 761 1394.5 810.982 1394.5 851.5 1435.24 851.5 1485.5 851.5 1535.76 810.982 1576.5 761 1576.5 711.018 1576.5 670.5 1535.76 670.5 1485.5Z" stroke="#4472C4" stroke-width="4.58333" stroke-miterlimit="8" fill="#E7E6E6" fill-rule="evenodd"/><path d="M1071.5 1485.5C1071.5 1435.24 1112.24 1394.5 1162.5 1394.5 1212.76 1394.5 1253.5 1435.24 1253.5 1485.5 1253.5 1535.76 1212.76 1576.5 1162.5 1576.5 1112.24 1576.5 1071.5 1535.76 1071.5 1485.5Z" stroke="#4472C4" stroke-width="4.58333" stroke-miterlimit="8" fill="#E7E6E6" fill-rule="evenodd"/><path d="M1473.5 1485.5C1473.5 1435.24 1514.02 1394.5 1564 1394.5 1613.98 1394.5 1654.5 1435.24 1654.5 1485.5 1654.5 1535.76 1613.98 1576.5 1564 1576.5 1514.02 1576.5 1473.5 1535.76 1473.5 1485.5Z" stroke="#4472C4" stroke-width="4.58333" stroke-miterlimit="8" fill="#E7E6E6" fill-rule="evenodd"/><path d="M1874.5 1485.5C1874.5 1435.24 1915.24 1394.5 1965.5 1394.5 2015.76 1394.5 2056.5 1435.24 2056.5 1485.5 2056.5 1535.76 2015.76 1576.5 1965.5 1576.5 1915.24 1576.5 1874.5 1535.76 1874.5 1485.5Z" stroke="#4472C4" stroke-width="4.58333" stroke-miterlimit="8" fill="#FFE699" fill-rule="evenodd"/><path d="M268.5 1791C268.5 1741.02 309.242 1700.5 359.5 1700.5 409.758 1700.5 450.5 1741.02 450.5 1791 450.5 1840.98 409.758 1881.5 359.5 1881.5 309.242 1881.5 268.5 1840.98 268.5 1791Z" stroke="#4472C4" stroke-width="4.58333" stroke-miterlimit="8" fill="#FFE699" fill-rule="evenodd"/><path d="M670.5 1791C670.5 1741.02 711.018 1700.5 761 1700.5 810.982 1700.5 851.5 1741.02 851.5 1791 851.5 1840.98 810.982 1881.5 761 1881.5 711.018 1881.5 670.5 1840.98 670.5 1791Z" stroke="#4472C4" stroke-width="4.58333" stroke-miterlimit="8" fill="#E7E6E6" fill-rule="evenodd"/><path d="M1071.5 1791C1071.5 1741.02 1112.24 1700.5 1162.5 1700.5 1212.76 1700.5 1253.5 1741.02 1253.5 1791 1253.5 1840.98 1212.76 1881.5 1162.5 1881.5 1112.24 1881.5 1071.5 1840.98 1071.5 1791Z" stroke="#4472C4" stroke-width="4.58333" stroke-miterlimit="8" fill="#E7E6E6" fill-rule="evenodd"/><path d="M1473.5 1791C1473.5 1741.02 1514.02 1700.5 1564 1700.5 1613.98 1700.5 1654.5 1741.02 1654.5 1791 1654.5 1840.98 1613.98 1881.5 1564 1881.5 1514.02 1881.5 1473.5 1840.98 1473.5 1791Z" stroke="#4472C4" stroke-width="4.58333" stroke-miterlimit="8" fill="#FFE699" fill-rule="evenodd"/><path d="M1874.5 1791C1874.5 1741.02 1915.24 1700.5 1965.5 1700.5 2015.76 1700.5 2056.5 1741.02 2056.5 1791 2056.5 1840.98 2015.76 1881.5 1965.5 1881.5 1915.24 1881.5 1874.5 1840.98 1874.5 1791Z" stroke="#4472C4" stroke-width="4.58333" stroke-miterlimit="8" fill="#FFE699" fill-rule="evenodd"/><path d="M268.5 2096C268.5 2046.02 309.242 2005.5 359.5 2005.5 409.758 2005.5 450.5 2046.02 450.5 2096 450.5 2145.98 409.758 2186.5 359.5 2186.5 309.242 2186.5 268.5 2145.98 268.5 2096Z" stroke="#4472C4" stroke-width="4.58333" stroke-miterlimit="8" fill="#FFE699" fill-rule="evenodd"/><path d="M670.5 2096C670.5 2046.02 711.018 2005.5 761 2005.5 810.982 2005.5 851.5 2046.02 851.5 2096 851.5 2145.98 810.982 2186.5 761 2186.5 711.018 2186.5 670.5 2145.98 670.5 2096Z" stroke="#4472C4" stroke-width="4.58333" stroke-miterlimit="8" fill="#E7E6E6" fill-rule="evenodd"/><path d="M1071.5 2096C1071.5 2046.02 1112.24 2005.5 1162.5 2005.5 1212.76 2005.5 1253.5 2046.02 1253.5 2096 1253.5 2145.98 1212.76 2186.5 1162.5 2186.5 1112.24 2186.5 1071.5 2145.98 1071.5 2096Z" stroke="#4472C4" stroke-width="4.58333" stroke-miterlimit="8" fill="#E7E6E6" fill-rule="evenodd"/><path d="M1473.5 2096C1473.5 2046.02 1514.02 2005.5 1564 2005.5 1613.98 2005.5 1654.5 2046.02 1654.5 2096 1654.5 2145.98 1613.98 2186.5 1564 2186.5 1514.02 2186.5 1473.5 2145.98 1473.5 2096Z" stroke="#4472C4" stroke-width="4.58333" stroke-miterlimit="8" fill="#FFE699" fill-rule="evenodd"/><path d="M1874.5 2096C1874.5 2046.02 1915.24 2005.5 1965.5 2005.5 2015.76 2005.5 2056.5 2046.02 2056.5 2096 2056.5 2145.98 2015.76 2186.5 1965.5 2186.5 1915.24 2186.5 1874.5 2145.98 1874.5 2096Z" stroke="#4472C4" stroke-width="4.58333" stroke-miterlimit="8" fill="#E7E6E6" fill-rule="evenodd"/><path d="M2746.5 450C2746.5 400.018 2787.02 359.5 2837 359.5 2886.98 359.5 2927.5 400.018 2927.5 450 2927.5 499.982 2886.98 540.5 2837 540.5 2787.02 540.5 2746.5 499.982 2746.5 450Z" stroke="#4472C4" stroke-width="4.58333" stroke-miterlimit="8" fill="#E7E6E6" fill-rule="evenodd"/><path d="M3147.5 450C3147.5 400.018 3188.24 359.5 3238.5 359.5 3288.76 359.5 3329.5 400.018 3329.5 450 3329.5 499.982 3288.76 540.5 3238.5 540.5 3188.24 540.5 3147.5 499.982 3147.5 450Z" stroke="#4472C4" stroke-width="4.58333" stroke-miterlimit="8" fill="#E7E6E6" fill-rule="evenodd"/><path d="M3549.5 450C3549.5 400.018 3590.02 359.5 3640 359.5 3689.98 359.5 3730.5 400.018 3730.5 450 3730.5 499.982 3689.98 540.5 3640 540.5 3590.02 540.5 3549.5 499.982 3549.5 450Z" stroke="#4472C4" stroke-width="4.58333" stroke-miterlimit="8" fill="#E7E6E6" fill-rule="evenodd"/><path d="M2746.5 795C2746.5 745.018 2787.02 704.5 2837 704.5 2886.98 704.5 2927.5 745.018 2927.5 795 2927.5 844.982 2886.98 885.5 2837 885.5 2787.02 885.5 2746.5 844.982 2746.5 795Z" stroke="#4472C4" stroke-width="4.58333" stroke-miterlimit="8" fill="#FFE699" fill-rule="evenodd"/><path d="M3147.5 795C3147.5 745.018 3188.24 704.5 3238.5 704.5 3288.76 704.5 3329.5 745.018 3329.5 795 3329.5 844.982 3288.76 885.5 3238.5 885.5 3188.24 885.5 3147.5 844.982 3147.5 795Z" stroke="#4472C4" stroke-width="4.58333" stroke-miterlimit="8" fill="#FFE699" fill-rule="evenodd"/><path d="M3549.5 795C3549.5 745.018 3590.02 704.5 3640 704.5 3689.98 704.5 3730.5 745.018 3730.5 795 3730.5 844.982 3689.98 885.5 3640 885.5 3590.02 885.5 3549.5 844.982 3549.5 795Z" stroke="#4472C4" stroke-width="4.58333" stroke-miterlimit="8" fill="#FFE699" fill-rule="evenodd"/><path d="M2746.5 1140.5C2746.5 1090.24 2787.02 1049.5 2837 1049.5 2886.98 1049.5 2927.5 1090.24 2927.5 1140.5 2927.5 1190.76 2886.98 1231.5 2837 1231.5 2787.02 1231.5 2746.5 1190.76 2746.5 1140.5Z" stroke="#4472C4" stroke-width="4.58333" stroke-miterlimit="8" fill="#FFE699" fill-rule="evenodd"/><path d="M3147.5 1140.5C3147.5 1090.24 3188.24 1049.5 3238.5 1049.5 3288.76 1049.5 3329.5 1090.24 3329.5 1140.5 3329.5 1190.76 3288.76 1231.5 3238.5 1231.5 3188.24 1231.5 3147.5 1190.76 3147.5 1140.5Z" stroke="#4472C4" stroke-width="4.58333" stroke-miterlimit="8" fill="#E7E6E6" fill-rule="evenodd"/><path d="M3549.5 1140.5C3549.5 1090.24 3590.02 1049.5 3640 1049.5 3689.98 1049.5 3730.5 1090.24 3730.5 1140.5 3730.5 1190.76 3689.98 1231.5 3640 1231.5 3590.02 1231.5 3549.5 1190.76 3549.5 1140.5Z" stroke="#4472C4" stroke-width="4.58333" stroke-miterlimit="8" fill="#FFE699" fill-rule="evenodd"/><text font-family="qiantubifengshouxieti,qiantubifengshouxieti_MSFontService,sans-serif" font-weight="400" font-size="92" transform="matrix(1 0 0 1 2815.18 252)">1</text><text font-family="qiantubifengshouxieti,qiantubifengshouxieti_MSFontService,sans-serif" font-weight="400" font-size="92" transform="matrix(1 0 0 1 3216.43 252)">2</text><text font-family="qiantubifengshouxieti,qiantubifengshouxieti_MSFontService,sans-serif" font-weight="400" font-size="92" transform="matrix(1 0 0 1 3617.67 252)">3</text><path d="M2746.5 1485.5C2746.5 1435.24 2787.02 1394.5 2837 1394.5 2886.98 1394.5 2927.5 1435.24 2927.5 1485.5 2927.5 1535.76 2886.98 1576.5 2837 1576.5 2787.02 1576.5 2746.5 1535.76 2746.5 1485.5Z" stroke="#4472C4" stroke-width="4.58333" stroke-miterlimit="8" fill="#FFE699" fill-rule="evenodd"/><path d="M3147.5 1485.5C3147.5 1435.24 3188.24 1394.5 3238.5 1394.5 3288.76 1394.5 3329.5 1435.24 3329.5 1485.5 3329.5 1535.76 3288.76 1576.5 3238.5 1576.5 3188.24 1576.5 3147.5 1535.76 3147.5 1485.5Z" stroke="#4472C4" stroke-width="4.58333" stroke-miterlimit="8" fill="#E7E6E6" fill-rule="evenodd"/><path d="M3549.5 1485.5C3549.5 1435.24 3590.02 1394.5 3640 1394.5 3689.98 1394.5 3730.5 1435.24 3730.5 1485.5 3730.5 1535.76 3689.98 1576.5 3640 1576.5 3590.02 1576.5 3549.5 1535.76 3549.5 1485.5Z" stroke="#4472C4" stroke-width="4.58333" stroke-miterlimit="8" fill="#E7E6E6" fill-rule="evenodd"/></g></svg>