<svg width="2990" height="2014" xmlns="http://www.w3.org/2000/svg" xmlns:xlink="http://www.w3.org/1999/xlink" xml:space="preserve" overflow="hidden"><g transform="translate(-54 -320)"><rect x="2819" y="2109" width="221" height="189" fill="#FBE3D6"/><rect x="2597" y="2107" width="221" height="189" fill="#FBE3D6"/><rect x="2375" y="2109" width="221" height="189" fill="#FBE3D6"/><rect x="2153" y="2107" width="221" height="189" fill="#FBE3D6"/><rect x="1928" y="2111" width="222" height="189" fill="#FBE3D6"/><rect x="1046" y="2111" width="222" height="188" fill="#FBE3D6"/><rect x="824" y="2105" width="221" height="188" fill="#FBE3D6"/><rect x="598" y="2106" width="221" height="189" fill="#FBE3D6"/><rect x="380" y="2108" width="221" height="189" fill="#FBE3D6"/><rect x="1265" y="1472" width="221" height="189" fill="#FBE3D6"/><rect x="1706" y="1087" width="221" height="189" fill="#FBE3D6"/><rect x="1485" y="1082" width="222" height="188" fill="#FBE3D6"/><rect x="600" y="697" width="221" height="188" fill="#CAEEFB"/><rect x="377" y="697" width="221" height="188" fill="#CAEEFB"/><rect x="377.5" y="323.5" width="2644" height="188" stroke="#4E95D9" stroke-width="6.875" stroke-miterlimit="8" fill="none"/><path d="M602.5 323.5 602.5 512.072" stroke="#4E95D9" stroke-width="6.875" stroke-miterlimit="8" fill="none" fill-rule="evenodd"/><path d="M820.5 323.5 820.5 512.072" stroke="#4E95D9" stroke-width="6.875" stroke-miterlimit="8" fill="none" fill-rule="evenodd"/><path d="M1042.5 323.5 1042.5 512.072" stroke="#4E95D9" stroke-width="6.875" stroke-miterlimit="8" fill="none" fill-rule="evenodd"/><path d="M1264.5 323.5 1264.5 512.072" stroke="#4E95D9" stroke-width="6.875" stroke-miterlimit="8" fill="none" fill-rule="evenodd"/><path d="M1486.5 323.5 1486.5 512.072" stroke="#4E95D9" stroke-width="6.875" stroke-miterlimit="8" fill="none" fill-rule="evenodd"/><path d="M1707.5 323.5 1707.5 512.072" stroke="#4E95D9" stroke-width="6.875" stroke-miterlimit="8" fill="none" fill-rule="evenodd"/><path d="M1929.5 323.5 1929.5 512.072" stroke="#4E95D9" stroke-width="6.875" stroke-miterlimit="8" fill="none" fill-rule="evenodd"/><path d="M2151.5 323.5 2151.5 512.072" stroke="#4E95D9" stroke-width="6.875" stroke-miterlimit="8" fill="none" fill-rule="evenodd"/><path d="M2373.5 323.5 2373.5 512.072" stroke="#4E95D9" stroke-width="6.875" stroke-miterlimit="8" fill="none" fill-rule="evenodd"/><path d="M2595.5 323.5 2595.5 512.072" stroke="#4E95D9" stroke-width="6.875" stroke-miterlimit="8" fill="none" fill-rule="evenodd"/><path d="M2816.5 323.5 2816.5 512.072" stroke="#4E95D9" stroke-width="6.875" stroke-miterlimit="8" fill="none" fill-rule="evenodd"/><text font-family="Times New Roman,Times New Roman_MSFontService,sans-serif" font-weight="400" font-size="92" transform="matrix(1 0 0 1 466.098 450)">1</text><text font-family="Times New Roman,Times New Roman_MSFontService,sans-serif" font-weight="400" font-size="92" transform="matrix(1 0 0 1 690.933 450)">2</text><text font-family="Times New Roman,Times New Roman_MSFontService,sans-serif" font-weight="400" font-size="92" transform="matrix(1 0 0 1 915.768 450)">3</text><text font-family="Times New Roman,Times New Roman_MSFontService,sans-serif" font-weight="400" font-size="92" transform="matrix(1 0 0 1 1127.23 450)">4</text><text font-family="Times New Roman,Times New Roman_MSFontService,sans-serif" font-weight="400" font-size="92" transform="matrix(1 0 0 1 1352.24 450)">5</text><text font-family="Times New Roman,Times New Roman_MSFontService,sans-serif" font-weight="400" font-size="92" transform="matrix(1 0 0 1 1572.3 450)">6</text><text font-family="Times New Roman,Times New Roman_MSFontService,sans-serif" font-weight="400" font-size="92" transform="matrix(1 0 0 1 1795.12 450)">7</text><text font-family="Times New Roman,Times New Roman_MSFontService,sans-serif" font-weight="400" font-size="92" transform="matrix(1 0 0 1 2016.42 450)">8</text><text font-family="Times New Roman,Times New Roman_MSFontService,sans-serif" font-weight="400" font-size="92" transform="matrix(1 0 0 1 2234.43 450)">9</text><text font-family="Times New Roman,Times New Roman_MSFontService,sans-serif" font-weight="400" font-size="92" transform="matrix(1 0 0 1 2434.72 450)">10</text><text font-family="Times New Roman,Times New Roman_MSFontService,sans-serif" font-weight="400" font-size="92" transform="matrix(1 0 0 1 2659.95 450)">11</text><text font-family="Times New Roman,Times New Roman_MSFontService,sans-serif" font-weight="400" font-size="92" transform="matrix(1 0 0 1 2872.02 450)">12</text><text fill="#C04F15" font-family="Times New Roman,Times New Roman_MSFontService,sans-serif" font-weight="400" font-size="110" transform="matrix(1 0 0 1 120.006 467)">12</text><rect x="377.5" y="697.5" width="2644" height="188" stroke="#4E95D9" stroke-width="6.875" stroke-miterlimit="8" fill="none"/><path d="M602.5 697.5 602.5 886.072" stroke="#4E95D9" stroke-width="6.875" stroke-miterlimit="8" fill="none" fill-rule="evenodd"/><path d="M820.5 697.5 820.5 886.072" stroke="#4E95D9" stroke-width="6.875" stroke-miterlimit="8" fill="none" fill-rule="evenodd"/><path d="M1042.5 697.5 1042.5 886.072" stroke="#4E95D9" stroke-width="6.875" stroke-miterlimit="8" fill="none" fill-rule="evenodd"/><path d="M1264.5 697.5 1264.5 886.072" stroke="#4E95D9" stroke-width="6.875" stroke-miterlimit="8" fill="none" fill-rule="evenodd"/><path d="M1486.5 697.5 1486.5 886.072" stroke="#4E95D9" stroke-width="6.875" stroke-miterlimit="8" fill="none" fill-rule="evenodd"/><path d="M1707.5 697.5 1707.5 886.072" stroke="#4E95D9" stroke-width="6.875" stroke-miterlimit="8" fill="none" fill-rule="evenodd"/><path d="M1929.5 697.5 1929.5 886.072" stroke="#4E95D9" stroke-width="6.875" stroke-miterlimit="8" fill="none" fill-rule="evenodd"/><path d="M2151.5 697.5 2151.5 886.072" stroke="#4E95D9" stroke-width="6.875" stroke-miterlimit="8" fill="none" fill-rule="evenodd"/><path d="M2373.5 697.5 2373.5 886.072" stroke="#4E95D9" stroke-width="6.875" stroke-miterlimit="8" fill="none" fill-rule="evenodd"/><path d="M2595.5 697.5 2595.5 886.072" stroke="#4E95D9" stroke-width="6.875" stroke-miterlimit="8" fill="none" fill-rule="evenodd"/><path d="M2816.5 697.5 2816.5 886.072" stroke="#4E95D9" stroke-width="6.875" stroke-miterlimit="8" fill="none" fill-rule="evenodd"/><text font-family="Times New Roman,Times New Roman_MSFontService,sans-serif" font-weight="400" font-size="92" transform="matrix(1 0 0 1 466.098 824)">1</text><text font-family="Times New Roman,Times New Roman_MSFontService,sans-serif" font-weight="400" font-size="92" transform="matrix(1 0 0 1 690.933 824)">2</text><text font-family="Times New Roman,Times New Roman_MSFontService,sans-serif" font-weight="400" font-size="92" transform="matrix(1 0 0 1 915.768 824)">3</text><text font-family="Times New Roman,Times New Roman_MSFontService,sans-serif" font-weight="400" font-size="92" transform="matrix(1 0 0 1 1127.23 824)">4</text><text font-family="Times New Roman,Times New Roman_MSFontService,sans-serif" font-weight="400" font-size="92" transform="matrix(1 0 0 1 1352.24 824)">5</text><text font-family="Times New Roman,Times New Roman_MSFontService,sans-serif" font-weight="400" font-size="92" transform="matrix(1 0 0 1 1572.3 824)">6</text><text font-family="Times New Roman,Times New Roman_MSFontService,sans-serif" font-weight="400" font-size="92" transform="matrix(1 0 0 1 1795.12 824)">7</text><text font-family="Times New Roman,Times New Roman_MSFontService,sans-serif" font-weight="400" font-size="92" transform="matrix(1 0 0 1 2016.42 824)">8</text><text font-family="Times New Roman,Times New Roman_MSFontService,sans-serif" font-weight="400" font-size="92" transform="matrix(1 0 0 1 2234.43 824)">9</text><text font-family="Times New Roman,Times New Roman_MSFontService,sans-serif" font-weight="400" font-size="92" transform="matrix(1 0 0 1 2434.72 824)">10</text><text font-family="Times New Roman,Times New Roman_MSFontService,sans-serif" font-weight="400" font-size="92" transform="matrix(1 0 0 1 2659.95 824)">11</text><text font-family="Times New Roman,Times New Roman_MSFontService,sans-serif" font-weight="400" font-size="92" transform="matrix(1 0 0 1 2872.02 824)">12</text><text fill="#C04F15" font-family="Times New Roman,Times New Roman_MSFontService,sans-serif" font-weight="400" font-size="110" transform="matrix(1 0 0 1 120.006 830)">11</text><rect x="600" y="1082" width="221" height="188" fill="#CAEEFB"/><rect x="377" y="1082" width="221" height="188" fill="#CAEEFB"/><rect x="377.5" y="1082.5" width="2644" height="188" stroke="#4E95D9" stroke-width="6.875" stroke-miterlimit="8" fill="none"/><path d="M602.5 1082.5 602.5 1271.07" stroke="#4E95D9" stroke-width="6.875" stroke-miterlimit="8" fill="none" fill-rule="evenodd"/><path d="M820.5 1082.5 820.5 1271.07" stroke="#4E95D9" stroke-width="6.875" stroke-miterlimit="8" fill="none" fill-rule="evenodd"/><path d="M1042.5 1082.5 1042.5 1271.07" stroke="#4E95D9" stroke-width="6.875" stroke-miterlimit="8" fill="none" fill-rule="evenodd"/><path d="M1264.5 1082.5 1264.5 1271.07" stroke="#4E95D9" stroke-width="6.875" stroke-miterlimit="8" fill="none" fill-rule="evenodd"/><path d="M1486.5 1082.5 1486.5 1271.07" stroke="#4E95D9" stroke-width="6.875" stroke-miterlimit="8" fill="none" fill-rule="evenodd"/><path d="M1707.5 1082.5 1707.5 1271.07" stroke="#4E95D9" stroke-width="6.875" stroke-miterlimit="8" fill="none" fill-rule="evenodd"/><path d="M1929.5 1082.5 1929.5 1271.07" stroke="#4E95D9" stroke-width="6.875" stroke-miterlimit="8" fill="none" fill-rule="evenodd"/><path d="M2151.5 1082.5 2151.5 1271.07" stroke="#4E95D9" stroke-width="6.875" stroke-miterlimit="8" fill="none" fill-rule="evenodd"/><path d="M2373.5 1082.5 2373.5 1271.07" stroke="#4E95D9" stroke-width="6.875" stroke-miterlimit="8" fill="none" fill-rule="evenodd"/><path d="M2595.5 1082.5 2595.5 1271.07" stroke="#4E95D9" stroke-width="6.875" stroke-miterlimit="8" fill="none" fill-rule="evenodd"/><path d="M2816.5 1082.5 2816.5 1271.07" stroke="#4E95D9" stroke-width="6.875" stroke-miterlimit="8" fill="none" fill-rule="evenodd"/><text font-family="Times New Roman,Times New Roman_MSFontService,sans-serif" font-weight="400" font-size="92" transform="matrix(1 0 0 1 466.098 1209)">1</text><text font-family="Times New Roman,Times New Roman_MSFontService,sans-serif" font-weight="400" font-size="92" transform="matrix(1 0 0 1 690.933 1209)">2</text><text font-family="Times New Roman,Times New Roman_MSFontService,sans-serif" font-weight="400" font-size="92" transform="matrix(1 0 0 1 915.768 1209)">3</text><text font-family="Times New Roman,Times New Roman_MSFontService,sans-serif" font-weight="400" font-size="92" transform="matrix(1 0 0 1 1127.23 1209)">4</text><text font-family="Times New Roman,Times New Roman_MSFontService,sans-serif" font-weight="400" font-size="92" transform="matrix(1 0 0 1 1352.24 1209)">5</text><text font-family="Times New Roman,Times New Roman_MSFontService,sans-serif" font-weight="400" font-size="92" transform="matrix(1 0 0 1 1572.3 1209)">6</text><text font-family="Times New Roman,Times New Roman_MSFontService,sans-serif" font-weight="400" font-size="92" transform="matrix(1 0 0 1 1795.12 1209)">7</text><text font-family="Times New Roman,Times New Roman_MSFontService,sans-serif" font-weight="400" font-size="92" transform="matrix(1 0 0 1 2016.42 1209)">8</text><text font-family="Times New Roman,Times New Roman_MSFontService,sans-serif" font-weight="400" font-size="92" transform="matrix(1 0 0 1 2234.43 1209)">9</text><text font-family="Times New Roman,Times New Roman_MSFontService,sans-serif" font-weight="400" font-size="92" transform="matrix(1 0 0 1 2434.72 1209)">10</text><text font-family="Times New Roman,Times New Roman_MSFontService,sans-serif" font-weight="400" font-size="92" transform="matrix(1 0 0 1 2659.95 1209)">11</text><text font-family="Times New Roman,Times New Roman_MSFontService,sans-serif" font-weight="400" font-size="92" transform="matrix(1 0 0 1 2872.02 1209)">12</text><text fill="#C04F15" font-family="Times New Roman,Times New Roman_MSFontService,sans-serif" font-weight="400" font-size="110" transform="matrix(1 0 0 1 120.006 1215)">10</text><rect x="1706" y="1478" width="221" height="188" fill="#FBE3D6"/><rect x="1485" y="1472" width="222" height="189" fill="#FBE3D6"/><rect x="600" y="1472" width="221" height="189" fill="#CAEEFB"/><rect x="377" y="1472" width="221" height="189" fill="#CAEEFB"/><rect x="377.5" y="1472.5" width="2644" height="189" stroke="#4E95D9" stroke-width="6.875" stroke-miterlimit="8" fill="none"/><path d="M602.5 1472.5 602.5 1661.07" stroke="#4E95D9" stroke-width="6.875" stroke-miterlimit="8" fill="none" fill-rule="evenodd"/><path d="M820.5 1472.5 820.5 1661.07" stroke="#4E95D9" stroke-width="6.875" stroke-miterlimit="8" fill="none" fill-rule="evenodd"/><path d="M1042.5 1472.5 1042.5 1661.07" stroke="#4E95D9" stroke-width="6.875" stroke-miterlimit="8" fill="none" fill-rule="evenodd"/><path d="M1264.5 1472.5 1264.5 1661.07" stroke="#4E95D9" stroke-width="6.875" stroke-miterlimit="8" fill="none" fill-rule="evenodd"/><path d="M1486.5 1472.5 1486.5 1661.07" stroke="#4E95D9" stroke-width="6.875" stroke-miterlimit="8" fill="none" fill-rule="evenodd"/><path d="M1707.5 1472.5 1707.5 1661.07" stroke="#4E95D9" stroke-width="6.875" stroke-miterlimit="8" fill="none" fill-rule="evenodd"/><path d="M1929.5 1472.5 1929.5 1661.07" stroke="#4E95D9" stroke-width="6.875" stroke-miterlimit="8" fill="none" fill-rule="evenodd"/><path d="M2151.5 1472.5 2151.5 1661.07" stroke="#4E95D9" stroke-width="6.875" stroke-miterlimit="8" fill="none" fill-rule="evenodd"/><path d="M2373.5 1472.5 2373.5 1661.07" stroke="#4E95D9" stroke-width="6.875" stroke-miterlimit="8" fill="none" fill-rule="evenodd"/><path d="M2595.5 1472.5 2595.5 1661.07" stroke="#4E95D9" stroke-width="6.875" stroke-miterlimit="8" fill="none" fill-rule="evenodd"/><path d="M2816.5 1472.5 2816.5 1661.07" stroke="#4E95D9" stroke-width="6.875" stroke-miterlimit="8" fill="none" fill-rule="evenodd"/><text font-family="Times New Roman,Times New Roman_MSFontService,sans-serif" font-weight="400" font-size="92" transform="matrix(1 0 0 1 466.098 1600)">1</text><text font-family="Times New Roman,Times New Roman_MSFontService,sans-serif" font-weight="400" font-size="92" transform="matrix(1 0 0 1 690.933 1600)">2</text><text font-family="Times New Roman,Times New Roman_MSFontService,sans-serif" font-weight="400" font-size="92" transform="matrix(1 0 0 1 915.768 1600)">3</text><text font-family="Times New Roman,Times New Roman_MSFontService,sans-serif" font-weight="400" font-size="92" transform="matrix(1 0 0 1 1127.23 1600)">4</text><text font-family="Times New Roman,Times New Roman_MSFontService,sans-serif" font-weight="400" font-size="92" transform="matrix(1 0 0 1 1352.24 1600)">5</text><text font-family="Times New Roman,Times New Roman_MSFontService,sans-serif" font-weight="400" font-size="92" transform="matrix(1 0 0 1 1572.3 1600)">6</text><text font-family="Times New Roman,Times New Roman_MSFontService,sans-serif" font-weight="400" font-size="92" transform="matrix(1 0 0 1 1795.12 1600)">7</text><text font-family="Times New Roman,Times New Roman_MSFontService,sans-serif" font-weight="400" font-size="92" transform="matrix(1 0 0 1 2016.42 1600)">8</text><text font-family="Times New Roman,Times New Roman_MSFontService,sans-serif" font-weight="400" font-size="92" transform="matrix(1 0 0 1 2234.43 1600)">9</text><text font-family="Times New Roman,Times New Roman_MSFontService,sans-serif" font-weight="400" font-size="92" transform="matrix(1 0 0 1 2434.72 1600)">10</text><text font-family="Times New Roman,Times New Roman_MSFontService,sans-serif" font-weight="400" font-size="92" transform="matrix(1 0 0 1 2659.95 1600)">11</text><text font-family="Times New Roman,Times New Roman_MSFontService,sans-serif" font-weight="400" font-size="92" transform="matrix(1 0 0 1 2872.02 1600)">12</text><text fill="#C04F15" font-family="Times New Roman,Times New Roman_MSFontService,sans-serif" font-weight="400" font-size="110" transform="matrix(1 0 0 1 148.026 1606)">9</text><path d="M1596 1818.5C1596 1810.49 1602.49 1804 1610.5 1804 1618.51 1804 1625 1810.49 1625 1818.5 1625 1826.51 1618.51 1833 1610.5 1833 1602.49 1833 1596 1826.51 1596 1818.5Z" fill="#CAEEFB" fill-rule="evenodd"/><path d="M1596 1877C1596 1868.72 1602.49 1862 1610.5 1862 1618.51 1862 1625 1868.72 1625 1877 1625 1885.28 1618.51 1892 1610.5 1892 1602.49 1892 1596 1885.28 1596 1877Z" fill="#CAEEFB" fill-rule="evenodd"/><path d="M1596 1935.5C1596 1927.49 1602.49 1921 1610.5 1921 1618.51 1921 1625 1927.49 1625 1935.5 1625 1943.51 1618.51 1950 1610.5 1950 1602.49 1950 1596 1943.51 1596 1935.5Z" fill="#CAEEFB" fill-rule="evenodd"/><rect x="1265" y="2108" width="221" height="189" fill="#FBE3D6"/><rect x="1706" y="2114" width="221" height="188" fill="#FBE3D6"/><rect x="1485" y="2108" width="222" height="189" fill="#FBE3D6"/><rect x="377.5" y="2108.5" width="2663" height="189" stroke="#4E95D9" stroke-width="6.875" stroke-miterlimit="8" fill="none"/><path d="M602.5 2108.5 602.5 2297.07" stroke="#4E95D9" stroke-width="6.875" stroke-miterlimit="8" fill="none" fill-rule="evenodd"/><path d="M820.5 2108.5 820.5 2297.07" stroke="#4E95D9" stroke-width="6.875" stroke-miterlimit="8" fill="none" fill-rule="evenodd"/><path d="M1042.5 2108.5 1042.5 2297.07" stroke="#4E95D9" stroke-width="6.875" stroke-miterlimit="8" fill="none" fill-rule="evenodd"/><path d="M1264.5 2108.5 1264.5 2297.07" stroke="#4E95D9" stroke-width="6.875" stroke-miterlimit="8" fill="none" fill-rule="evenodd"/><path d="M1486.5 2108.5 1486.5 2297.07" stroke="#4E95D9" stroke-width="6.875" stroke-miterlimit="8" fill="none" fill-rule="evenodd"/><path d="M1707.5 2108.5 1707.5 2297.07" stroke="#4E95D9" stroke-width="6.875" stroke-miterlimit="8" fill="none" fill-rule="evenodd"/><path d="M1929.5 2108.5 1929.5 2297.07" stroke="#4E95D9" stroke-width="6.875" stroke-miterlimit="8" fill="none" fill-rule="evenodd"/><path d="M2151.5 2108.5 2151.5 2297.07" stroke="#4E95D9" stroke-width="6.875" stroke-miterlimit="8" fill="none" fill-rule="evenodd"/><path d="M2373.5 2108.5 2373.5 2297.07" stroke="#4E95D9" stroke-width="6.875" stroke-miterlimit="8" fill="none" fill-rule="evenodd"/><path d="M2595.5 2108.5 2595.5 2297.07" stroke="#4E95D9" stroke-width="6.875" stroke-miterlimit="8" fill="none" fill-rule="evenodd"/><path d="M2816.5 2108.5 2816.5 2297.07" stroke="#4E95D9" stroke-width="6.875" stroke-miterlimit="8" fill="none" fill-rule="evenodd"/><text font-family="Times New Roman,Times New Roman_MSFontService,sans-serif" font-weight="400" font-size="92" transform="matrix(1 0 0 1 466.098 2236)">1</text><text font-family="Times New Roman,Times New Roman_MSFontService,sans-serif" font-weight="400" font-size="92" transform="matrix(1 0 0 1 690.933 2236)">2</text><text font-family="Times New Roman,Times New Roman_MSFontService,sans-serif" font-weight="400" font-size="92" transform="matrix(1 0 0 1 915.768 2236)">3</text><text font-family="Times New Roman,Times New Roman_MSFontService,sans-serif" font-weight="400" font-size="92" transform="matrix(1 0 0 1 1127.23 2236)">4</text><text font-family="Times New Roman,Times New Roman_MSFontService,sans-serif" font-weight="400" font-size="92" transform="matrix(1 0 0 1 1352.24 2236)">5</text><text font-family="Times New Roman,Times New Roman_MSFontService,sans-serif" font-weight="400" font-size="92" transform="matrix(1 0 0 1 1572.3 2236)">6</text><text font-family="Times New Roman,Times New Roman_MSFontService,sans-serif" font-weight="400" font-size="92" transform="matrix(1 0 0 1 1795.12 2236)">7</text><text font-family="Times New Roman,Times New Roman_MSFontService,sans-serif" font-weight="400" font-size="92" transform="matrix(1 0 0 1 2016.42 2236)">8</text><text font-family="Times New Roman,Times New Roman_MSFontService,sans-serif" font-weight="400" font-size="92" transform="matrix(1 0 0 1 2234.43 2236)">9</text><text font-family="Times New Roman,Times New Roman_MSFontService,sans-serif" font-weight="400" font-size="92" transform="matrix(1 0 0 1 2434.72 2236)">10</text><text font-family="Times New Roman,Times New Roman_MSFontService,sans-serif" font-weight="400" font-size="92" transform="matrix(1 0 0 1 2659.95 2236)">11</text><text font-family="Times New Roman,Times New Roman_MSFontService,sans-serif" font-weight="400" font-size="92" transform="matrix(1 0 0 1 2883.25 2236)">12</text><text fill="#C04F15" font-family="Times New Roman,Times New Roman_MSFontService,sans-serif" font-weight="400" font-size="110" transform="matrix(1 0 0 1 148.026 2242)">1</text></g></svg>