<svg width="3881" height="1995" xmlns="http://www.w3.org/2000/svg" xmlns:xlink="http://www.w3.org/1999/xlink" xml:space="preserve" overflow="hidden"><g transform="translate(-83 -180)"><rect x="272" y="214" width="801" height="566" fill="#83CBEB"/><path d="M83.5 497.5 1265.7 497.5" stroke="#000000" stroke-width="6.875" stroke-miterlimit="8" fill="none" fill-rule="evenodd"/><path d="M600.738 873.043C602.197 873.043 603.501 873.212 604.649 873.55 605.797 873.887 606.811 874.408 607.689 875.11 608.567 875.812 609.289 876.684 609.857 877.724 610.424 878.764 610.85 880.014 611.133 881.473 611.417 882.932 611.559 884.783 611.559 887.025L611.559 902.304C611.559 904.168 611.613 905.519 611.721 906.357 611.829 907.194 612.018 907.843 612.289 908.302 612.559 908.761 612.95 909.146 613.464 909.457 613.977 909.768 614.869 910.099 616.139 910.45L616.139 912.436 600.171 912.436 600.171 910.45C601.225 910.126 601.981 909.842 602.44 909.599 602.9 909.356 603.285 909.018 603.595 908.586 603.906 908.153 604.149 907.485 604.325 906.579 604.5 905.674 604.588 904.303 604.588 902.466L604.588 891.848C604.588 889.956 604.534 888.241 604.426 886.701 604.318 885.161 604.136 883.898 603.879 882.911 603.622 881.925 603.312 881.155 602.947 880.601 602.582 880.048 602.15 879.575 601.65 879.183 601.15 878.791 600.576 878.481 599.928 878.251 599.279 878.021 598.428 877.906 597.374 877.906 596.321 877.906 595.321 878.116 594.375 878.535 593.43 878.953 592.39 879.676 591.255 880.703 590.12 881.729 589.296 882.743 588.783 883.742 588.269 884.742 588.013 885.89 588.013 887.187L588.013 902.304C588.013 904.627 588.121 906.242 588.337 907.147 588.553 908.052 588.965 908.741 589.573 909.214 590.181 909.687 591.174 910.099 592.552 910.45L592.552 912.436 576.665 912.436 576.665 910.45C577.719 910.126 578.468 909.842 578.914 909.599 579.36 909.356 579.738 909.018 580.049 908.586 580.36 908.153 580.603 907.491 580.779 906.6 580.954 905.708 581.042 904.317 581.042 902.425L581.042 884.755C581.042 883.026 581.015 881.635 580.961 880.581 580.907 879.527 580.718 878.683 580.393 878.048 580.069 877.413 579.576 876.94 578.914 876.63 578.252 876.319 577.313 876.056 576.098 875.839L576.098 873.692 585.581 873.327 588.053 873.327 587.607 879.933 588.175 880.095C590.174 878.068 591.788 876.623 593.018 875.758 594.247 874.894 595.49 874.225 596.746 873.752 598.003 873.279 599.333 873.043 600.738 873.043Z" fill-rule="evenodd"/><text fill="#000000" fill-opacity="0" font-family="Arial,Arial_MSFontService,sans-serif" font-size="39.3926" x="576.098" y="907.512">n</text><path d="M647.522 894.442 697.452 894.442 697.452 899.832 647.522 899.832ZM647.522 877.623 697.452 877.623 697.452 883.013 647.522 883.013Z" fill-rule="evenodd"/><text fill="#000000" fill-opacity="0" font-family="Arial,Arial_MSFontService,sans-serif" font-size="22.209" x="647.522" y="897.056">=</text><path d="M752.456 856.467 754.685 856.467C754.523 859.061 754.442 862.655 754.442 867.248L754.442 901.858C754.442 903.425 754.53 904.607 754.705 905.404 754.881 906.201 755.192 906.85 755.638 907.349 756.083 907.849 756.725 908.241 757.563 908.525 758.4 908.808 759.454 909.025 760.724 909.173 761.994 909.322 763.669 909.423 765.749 909.477L765.749 912.436 735.799 912.436 735.799 909.477C738.798 909.342 740.94 909.16 742.223 908.93 743.506 908.7 744.486 908.356 745.161 907.897 745.837 907.437 746.33 906.789 746.641 905.951 746.951 905.114 747.107 903.749 747.107 901.858L747.107 868.99C747.107 867.91 746.917 867.119 746.539 866.62 746.161 866.12 745.607 865.87 744.878 865.87 744.013 865.87 742.784 866.316 741.19 867.207 739.596 868.099 737.623 869.328 735.273 870.895L733.489 867.775Z" fill-rule="evenodd"/><text fill="#000000" fill-opacity="0" font-family="Arial,Arial_MSFontService,sans-serif" font-size="55.9683" x="733.489" y="905.44">1</text><rect x="1636" y="214" width="802" height="566" fill="#83CBEB"/><path d="M1448.5 497.5 2630.7 497.5" stroke="#000000" stroke-width="6.875" stroke-miterlimit="8" fill="none" fill-rule="evenodd"/><path d="M1964.86 873.043C1966.32 873.043 1967.62 873.212 1968.77 873.55 1969.92 873.887 1970.93 874.408 1971.81 875.11 1972.69 875.812 1973.41 876.684 1973.98 877.724 1974.55 878.764 1974.97 880.014 1975.25 881.473 1975.54 882.932 1975.68 884.783 1975.68 887.025L1975.68 902.304C1975.68 904.168 1975.73 905.519 1975.84 906.357 1975.95 907.194 1976.14 907.843 1976.41 908.302 1976.68 908.761 1977.07 909.146 1977.58 909.457 1978.1 909.768 1978.99 910.099 1980.26 910.45L1980.26 912.436 1964.29 912.436 1964.29 910.45C1965.35 910.126 1966.1 909.842 1966.56 909.599 1967.02 909.356 1967.41 909.018 1967.72 908.586 1968.03 908.153 1968.27 907.485 1968.45 906.579 1968.62 905.674 1968.71 904.303 1968.71 902.466L1968.71 891.848C1968.71 889.956 1968.66 888.241 1968.55 886.701 1968.44 885.161 1968.26 883.898 1968 882.911 1967.74 881.925 1967.43 881.155 1967.07 880.601 1966.7 880.048 1966.27 879.575 1965.77 879.183 1965.27 878.791 1964.7 878.481 1964.05 878.251 1963.4 878.021 1962.55 877.906 1961.5 877.906 1960.44 877.906 1959.44 878.116 1958.5 878.535 1957.55 878.953 1956.51 879.676 1955.38 880.703 1954.24 881.729 1953.42 882.743 1952.9 883.742 1952.39 884.742 1952.13 885.89 1952.13 887.187L1952.13 902.304C1952.13 904.627 1952.24 906.242 1952.46 907.147 1952.67 908.052 1953.09 908.741 1953.69 909.214 1954.3 909.687 1955.29 910.099 1956.67 910.45L1956.67 912.436 1940.79 912.436 1940.79 910.45C1941.84 910.126 1942.59 909.842 1943.04 909.599 1943.48 909.356 1943.86 909.018 1944.17 908.586 1944.48 908.153 1944.72 907.491 1944.9 906.6 1945.07 905.708 1945.16 904.317 1945.16 902.425L1945.16 884.755C1945.16 883.026 1945.14 881.635 1945.08 880.581 1945.03 879.527 1944.84 878.683 1944.51 878.048 1944.19 877.413 1943.7 876.94 1943.04 876.63 1942.37 876.319 1941.43 876.056 1940.22 875.839L1940.22 873.692 1949.7 873.327 1952.17 873.327 1951.73 879.933 1952.3 880.095C1954.29 878.068 1955.91 876.623 1957.14 875.758 1958.37 874.894 1959.61 874.225 1960.87 873.752 1962.12 873.279 1963.45 873.043 1964.86 873.043Z" fill-rule="evenodd"/><text fill="#000000" fill-opacity="0" font-family="Arial,Arial_MSFontService,sans-serif" font-size="39.3926" x="1940.22" y="907.512">n</text><path d="M2011.64 894.442 2061.57 894.442 2061.57 899.832 2011.64 899.832ZM2011.64 877.623 2061.57 877.623 2061.57 883.013 2011.64 883.013Z" fill-rule="evenodd"/><text fill="#000000" fill-opacity="0" font-family="Arial,Arial_MSFontService,sans-serif" font-size="22.209" x="2011.64" y="897.056">=</text><path d="M2113.7 856.467C2118.72 856.467 2122.52 857.568 2125.09 859.77 2127.65 861.972 2128.94 865.167 2128.94 869.355 2128.94 870.787 2128.8 872.104 2128.51 873.307 2128.23 874.509 2127.78 875.698 2127.17 876.873 2126.57 878.048 2125.75 879.311 2124.72 880.662 2123.7 882.013 2122.56 883.384 2121.32 884.776 2120.08 886.167 2117.93 888.484 2114.87 891.726 2109.74 897.157 2105.97 901.899 2103.57 905.951L2118.85 905.951C2120.17 905.951 2121.24 905.87 2122.05 905.708 2122.86 905.546 2123.51 905.276 2123.99 904.898 2124.48 904.519 2124.86 904.026 2125.15 903.418 2125.43 902.81 2125.79 901.872 2126.22 900.602L2129.67 900.602 2128.98 912.436 2095.62 912.436 2095.62 910.49C2096.79 907.653 2098.35 904.749 2100.33 901.777 2102.3 898.805 2105.09 895.306 2108.71 891.28 2111.85 887.822 2114.1 885.201 2115.48 883.418 2117 881.473 2118.12 879.791 2118.87 878.372 2119.61 876.954 2120.14 875.617 2120.47 874.36 2120.79 873.104 2120.95 871.841 2120.95 870.571 2120.95 868.545 2120.63 866.755 2119.98 865.201 2119.33 863.648 2118.34 862.425 2117 861.533 2115.67 860.642 2113.98 860.196 2111.96 860.196 2106.9 860.196 2103.5 863.006 2101.74 868.626L2096.84 868.626 2096.84 860.844C2100.11 859.304 2103.17 858.19 2106.02 857.501 2108.87 856.812 2111.43 856.467 2113.7 856.467Z" fill-rule="evenodd"/><text fill="#000000" fill-opacity="0" font-family="Arial,Arial_MSFontService,sans-serif" font-size="55.9683" x="2095.62" y="905.44">2</text><path d="M2034.5 180.5 2034.5 815.115" stroke="#000000" stroke-width="6.875" stroke-miterlimit="8" fill="none" fill-rule="evenodd"/><rect x="2965" y="214" width="802" height="566" fill="#83CBEB"/><path d="M2777.5 417.5 3959.7 417.501" stroke="#000000" stroke-width="6.875" stroke-miterlimit="8" fill="none" fill-rule="evenodd"/><path d="M3293.9 873.043C3295.36 873.043 3296.66 873.212 3297.81 873.55 3298.96 873.887 3299.97 874.408 3300.85 875.11 3301.73 875.812 3302.45 876.684 3303.02 877.724 3303.59 878.764 3304.01 880.014 3304.3 881.473 3304.58 882.932 3304.72 884.783 3304.72 887.025L3304.72 902.304C3304.72 904.168 3304.78 905.519 3304.88 906.357 3304.99 907.194 3305.18 907.843 3305.45 908.302 3305.72 908.761 3306.11 909.146 3306.63 909.457 3307.14 909.768 3308.03 910.099 3309.3 910.45L3309.3 912.436 3293.33 912.436 3293.33 910.45C3294.39 910.126 3295.14 909.842 3295.6 909.599 3296.06 909.356 3296.45 909.018 3296.76 908.586 3297.07 908.153 3297.31 907.485 3297.49 906.579 3297.66 905.674 3297.75 904.303 3297.75 902.466L3297.75 891.848C3297.75 889.956 3297.7 888.241 3297.59 886.701 3297.48 885.161 3297.3 883.898 3297.04 882.911 3296.79 881.925 3296.47 881.155 3296.11 880.601 3295.75 880.048 3295.31 879.575 3294.81 879.183 3294.31 878.791 3293.74 878.481 3293.09 878.251 3292.44 878.021 3291.59 877.906 3290.54 877.906 3289.48 877.906 3288.48 878.116 3287.54 878.535 3286.59 878.953 3285.55 879.676 3284.42 880.703 3283.28 881.729 3282.46 882.743 3281.95 883.742 3281.43 884.742 3281.18 885.89 3281.18 887.187L3281.18 902.304C3281.18 904.627 3281.28 906.242 3281.5 907.147 3281.72 908.052 3282.13 908.741 3282.74 909.214 3283.34 909.687 3284.34 910.099 3285.71 910.45L3285.71 912.436 3269.83 912.436 3269.83 910.45C3270.88 910.126 3271.63 909.842 3272.08 909.599 3272.52 909.356 3272.9 909.018 3273.21 908.586 3273.52 908.153 3273.77 907.491 3273.94 906.6 3274.12 905.708 3274.2 904.317 3274.2 902.425L3274.2 884.755C3274.2 883.026 3274.18 881.635 3274.12 880.581 3274.07 879.527 3273.88 878.683 3273.56 878.048 3273.23 877.413 3272.74 876.94 3272.08 876.63 3271.42 876.319 3270.48 876.056 3269.26 875.839L3269.26 873.692 3278.74 873.327 3281.22 873.327 3280.77 879.933 3281.34 880.095C3283.34 878.068 3284.95 876.623 3286.18 875.758 3287.41 874.894 3288.65 874.225 3289.91 873.752 3291.17 873.279 3292.5 873.043 3293.9 873.043Z" fill-rule="evenodd"/><text fill="#000000" fill-opacity="0" font-family="Arial,Arial_MSFontService,sans-serif" font-size="39.3926" x="3269.26" y="907.512">n</text><path d="M3340.69 894.442 3390.61 894.442 3390.61 899.832 3340.69 899.832ZM3340.69 877.623 3390.61 877.623 3390.61 883.013 3340.69 883.013Z" fill-rule="evenodd"/><text fill="#000000" fill-opacity="0" font-family="Arial,Arial_MSFontService,sans-serif" font-size="22.209" x="3340.69" y="897.056">=</text><path d="M3442.58 856.467C3445.63 856.467 3448.31 856.94 3450.6 857.886 3452.9 858.831 3454.66 860.189 3455.87 861.959 3457.09 863.729 3457.7 865.843 3457.7 868.301 3457.7 870.598 3457.24 872.618 3456.32 874.36 3455.4 876.103 3454.11 877.623 3452.45 878.92 3450.79 880.216 3448.63 881.486 3445.98 882.729L3445.98 883.094C3447.63 883.391 3449.22 883.898 3450.75 884.614 3452.27 885.33 3453.63 886.255 3454.82 887.39 3456.01 888.525 3456.96 889.882 3457.68 891.463 3458.39 893.043 3458.75 894.847 3458.75 896.873 3458.75 900.007 3458.07 902.79 3456.7 905.222 3455.34 907.653 3453.25 909.572 3450.44 910.977 3447.63 912.382 3444.21 913.084 3440.19 913.084 3437.86 913.084 3435.36 912.821 3432.67 912.294 3429.98 911.767 3427.52 911.071 3425.27 910.207L3425.27 901.615 3430.14 901.615C3431.08 904.425 3432.33 906.465 3433.89 907.734 3435.44 909.004 3437.55 909.639 3440.23 909.639 3443.74 909.639 3446.4 908.68 3448.19 906.762 3449.99 904.844 3450.89 902.007 3450.89 898.251 3450.89 894.306 3449.7 891.294 3447.32 889.214 3444.94 887.133 3441.46 886.093 3436.87 886.093L3433.22 886.093 3433.22 882.526C3436.87 882.31 3439.94 881.608 3442.44 880.419 3444.94 879.23 3446.79 877.704 3448.01 875.839 3449.23 873.975 3449.83 871.881 3449.83 869.558 3449.83 866.559 3449.04 864.249 3447.44 862.628 3445.85 861.006 3443.53 860.196 3440.47 860.196 3437.93 860.196 3435.87 860.885 3434.27 862.263 3432.68 863.641 3431.5 865.748 3430.75 868.585L3425.88 868.585 3425.88 860.885C3429.02 859.399 3431.95 858.291 3434.68 857.562 3437.41 856.832 3440.04 856.467 3442.58 856.467Z" fill-rule="evenodd"/><text fill="#000000" fill-opacity="0" font-family="Arial,Arial_MSFontService,sans-serif" font-size="56.6167" x="3425.27" y="906.007">3</text><path d="M3363.5 180.5 3363.5 815.115" stroke="#000000" stroke-width="6.875" stroke-miterlimit="8" fill="none" fill-rule="evenodd"/><path d="M2777.5 603.5 3959.7 603.5" stroke="#000000" stroke-width="6.875" stroke-miterlimit="8" fill="none" fill-rule="evenodd"/><rect x="272" y="1379" width="801" height="565" fill="#83CBEB"/><path d="M83.5 1582.5 1265.7 1582.5" stroke="#000000" stroke-width="6.875" stroke-miterlimit="8" fill="none" fill-rule="evenodd"/><path d="M600.738 2057.8C602.197 2057.8 603.501 2057.97 604.649 2058.31 605.797 2058.64 606.811 2059.16 607.689 2059.87 608.567 2060.57 609.289 2061.44 609.857 2062.48 610.424 2063.52 610.85 2064.77 611.133 2066.23 611.417 2067.69 611.559 2069.54 611.559 2071.78L611.559 2087.06C611.559 2088.92 611.613 2090.28 611.721 2091.11 611.829 2091.95 612.018 2092.6 612.289 2093.06 612.559 2093.52 612.95 2093.9 613.464 2094.21 613.977 2094.52 614.869 2094.85 616.139 2095.21L616.139 2097.19 600.171 2097.19 600.171 2095.21C601.225 2094.88 601.981 2094.6 602.44 2094.35 602.9 2094.11 603.285 2093.77 603.595 2093.34 603.906 2092.91 604.149 2092.24 604.325 2091.34 604.5 2090.43 604.588 2089.06 604.588 2087.22L604.588 2076.6C604.588 2074.71 604.534 2073 604.426 2071.46 604.318 2069.92 604.136 2068.65 603.879 2067.67 603.622 2066.68 603.312 2065.91 602.947 2065.36 602.582 2064.8 602.15 2064.33 601.65 2063.94 601.15 2063.55 600.576 2063.24 599.928 2063.01 599.279 2062.78 598.428 2062.66 597.374 2062.66 596.321 2062.66 595.321 2062.87 594.375 2063.29 593.43 2063.71 592.39 2064.43 591.255 2065.46 590.12 2066.49 589.296 2067.5 588.783 2068.5 588.269 2069.5 588.013 2070.65 588.013 2071.94L588.013 2087.06C588.013 2089.38 588.121 2091 588.337 2091.9 588.553 2092.81 588.965 2093.5 589.573 2093.97 590.181 2094.44 591.174 2094.85 592.552 2095.21L592.552 2097.19 576.665 2097.19 576.665 2095.21C577.719 2094.88 578.468 2094.6 578.914 2094.35 579.36 2094.11 579.738 2093.77 580.049 2093.34 580.36 2092.91 580.603 2092.25 580.779 2091.36 580.954 2090.46 581.042 2089.07 581.042 2087.18L581.042 2069.51C581.042 2067.78 581.015 2066.39 580.961 2065.34 580.907 2064.28 580.718 2063.44 580.393 2062.8 580.069 2062.17 579.576 2061.7 578.914 2061.39 578.252 2061.08 577.313 2060.81 576.098 2060.6L576.098 2058.45 585.581 2058.08 588.053 2058.08 587.607 2064.69 588.175 2064.85C590.174 2062.82 591.788 2061.38 593.018 2060.51 594.247 2059.65 595.49 2058.98 596.746 2058.51 598.003 2058.04 599.333 2057.8 600.738 2057.8Z" fill-rule="evenodd"/><text fill="#000000" fill-opacity="0" font-family="Arial,Arial_MSFontService,sans-serif" font-size="39.3926" x="576.098" y="2092.27">n</text><path d="M647.522 2079.2 697.452 2079.2 697.452 2084.59 647.522 2084.59ZM647.522 2062.38 697.452 2062.38 697.452 2067.77 647.522 2067.77Z" fill-rule="evenodd"/><text fill="#000000" fill-opacity="0" font-family="Arial,Arial_MSFontService,sans-serif" font-size="22.209" x="647.522" y="2081.81">=</text><path d="M751.929 2050.75 736.083 2075.92 736.083 2076.48 751.929 2076.48 751.929 2066.39C751.929 2063.85 751.97 2061.01 752.051 2057.86 752.132 2054.71 752.227 2052.34 752.335 2050.75ZM753.105 2041.59 758.9 2041.59 758.9 2076.48 759.751 2076.48C761.318 2076.48 762.439 2076.37 763.115 2076.14 763.79 2075.91 764.351 2075.5 764.797 2074.92 765.243 2074.34 765.655 2073.39 766.033 2072.06L769.113 2072.06 768.627 2080.41 758.9 2080.41 758.9 2087.06C758.9 2088.87 758.961 2090.19 759.082 2091.03 759.204 2091.87 759.407 2092.53 759.69 2093.02 759.974 2093.5 760.393 2093.91 760.947 2094.23 761.501 2094.56 762.399 2094.88 763.642 2095.21L763.642 2097.19 747.188 2097.19 747.188 2095.21C748.863 2094.77 749.984 2094.29 750.551 2093.77 751.119 2093.24 751.49 2092.49 751.666 2091.52 751.841 2090.55 751.929 2089.06 751.929 2087.06L751.929 2080.41 729.396 2080.41 729.396 2077.37Z" fill-rule="evenodd"/><text fill="#000000" fill-opacity="0" font-family="Arial,Arial_MSFontService,sans-serif" font-size="55.6035" x="729.396" y="2090.24">4</text><path d="M527.5 1344.5 527.501 1979.11" stroke="#000000" stroke-width="6.875" stroke-miterlimit="8" fill="none" fill-rule="evenodd"/><path d="M83.5 1767.5 1265.7 1767.5" stroke="#000000" stroke-width="6.875" stroke-miterlimit="8" fill="none" fill-rule="evenodd"/><path d="M809.5 1344.5 809.5 1979.11" stroke="#000000" stroke-width="6.875" stroke-miterlimit="8" fill="none" fill-rule="evenodd"/><rect x="1651" y="1385" width="801" height="566" fill="#83CBEB"/><path d="M1448.5 1523.5 2630.7 1523.5" stroke="#000000" stroke-width="6.875" stroke-miterlimit="8" fill="none" fill-rule="evenodd"/><path d="M1979.36 2063.98C1980.82 2063.98 1982.13 2064.15 1983.28 2064.49 1984.42 2064.83 1985.44 2065.35 1986.31 2066.05 1987.19 2066.75 1987.92 2067.62 1988.48 2068.66 1989.05 2069.71 1989.48 2070.95 1989.76 2072.41 1990.04 2073.87 1990.19 2075.72 1990.19 2077.97L1990.19 2093.24C1990.19 2095.11 1990.24 2096.46 1990.35 2097.3 1990.46 2098.14 1990.64 2098.78 1990.91 2099.24 1991.18 2099.7 1991.58 2100.09 1992.09 2100.4 1992.6 2100.71 1993.49 2101.04 1994.76 2101.39L1994.76 2103.38 1978.8 2103.38 1978.8 2101.39C1979.85 2101.07 1980.61 2100.78 1981.07 2100.54 1981.53 2100.3 1981.91 2099.96 1982.22 2099.53 1982.53 2099.09 1982.78 2098.43 1982.95 2097.52 1983.13 2096.62 1983.21 2095.24 1983.21 2093.41L1983.21 2082.79C1983.21 2080.9 1983.16 2079.18 1983.05 2077.64 1982.94 2076.1 1982.76 2074.84 1982.51 2073.85 1982.25 2072.87 1981.94 2072.1 1981.57 2071.54 1981.21 2070.99 1980.78 2070.52 1980.28 2070.12 1979.78 2069.73 1979.2 2069.42 1978.55 2069.19 1977.91 2068.96 1977.05 2068.85 1976 2068.85 1974.95 2068.85 1973.95 2069.06 1973 2069.48 1972.06 2069.89 1971.02 2070.62 1969.88 2071.64 1968.75 2072.67 1967.92 2073.68 1967.41 2074.68 1966.9 2075.68 1966.64 2076.83 1966.64 2078.13L1966.64 2093.24C1966.64 2095.57 1966.75 2097.18 1966.96 2098.09 1967.18 2098.99 1967.59 2099.68 1968.2 2100.15 1968.81 2100.63 1969.8 2101.04 1971.18 2101.39L1971.18 2103.38 1955.29 2103.38 1955.29 2101.39C1956.34 2101.07 1957.09 2100.78 1957.54 2100.54 1957.99 2100.3 1958.36 2099.96 1958.68 2099.53 1958.99 2099.09 1959.23 2098.43 1959.4 2097.54 1959.58 2096.65 1959.67 2095.26 1959.67 2093.37L1959.67 2075.7C1959.67 2073.97 1959.64 2072.58 1959.59 2071.52 1959.53 2070.47 1959.34 2069.62 1959.02 2068.99 1958.7 2068.35 1958.2 2067.88 1957.54 2067.57 1956.88 2067.26 1955.94 2067 1954.72 2066.78L1954.72 2064.63 1964.21 2064.27 1966.68 2064.27 1966.23 2070.87 1966.8 2071.04C1968.8 2069.01 1970.41 2067.56 1971.64 2066.7 1972.87 2065.83 1974.12 2065.17 1975.37 2064.69 1976.63 2064.22 1977.96 2063.98 1979.36 2063.98Z" fill-rule="evenodd"/><text fill="#000000" fill-opacity="0" font-family="Arial,Arial_MSFontService,sans-serif" font-size="39.3926" x="1954.72" y="2098.45">n</text><path d="M2026.15 2085.38 2076.08 2085.38 2076.08 2090.77 2026.15 2090.77ZM2026.15 2068.56 2076.08 2068.56 2076.08 2073.95 2026.15 2073.95Z" fill-rule="evenodd"/><text fill="#000000" fill-opacity="0" font-family="Arial,Arial_MSFontService,sans-serif" font-size="22.209" x="2026.15" y="2088">=</text><path d="M2139.55 2045.38 2142.71 2045.38 2142.11 2054.78 2118.8 2054.78 2118.8 2072.58C2120.21 2071.98 2121.73 2071.54 2123.38 2071.24 2125.03 2070.94 2126.68 2070.79 2128.33 2070.79 2131.54 2070.79 2134.39 2071.45 2136.88 2072.76 2139.36 2074.07 2141.28 2075.93 2142.63 2078.35 2143.98 2080.77 2144.66 2083.57 2144.66 2086.76 2144.66 2090.38 2143.9 2093.49 2142.39 2096.08 2140.88 2098.68 2138.69 2100.65 2135.82 2102 2132.96 2103.35 2129.57 2104.02 2125.65 2104.02 2120.98 2104.02 2116.09 2103.07 2110.98 2101.15L2110.98 2092.56 2115.88 2092.56C2116.7 2095.31 2117.92 2097.34 2119.55 2098.63 2121.19 2099.93 2123.3 2100.58 2125.89 2100.58 2129.49 2100.58 2132.2 2099.5 2134.04 2097.34 2135.88 2095.18 2136.8 2091.95 2136.8 2087.65 2136.8 2084.79 2136.31 2082.42 2135.34 2080.54 2134.36 2078.66 2133.05 2077.3 2131.41 2076.47 2129.76 2075.63 2127.84 2075.21 2125.65 2075.21 2123.81 2075.21 2122.23 2075.32 2120.91 2075.55 2119.59 2075.78 2118.17 2076.14 2116.65 2076.63L2113.41 2074.72 2113.41 2048.06 2135.74 2048.06C2136.66 2048.06 2137.32 2047.98 2137.73 2047.83 2138.13 2047.69 2138.46 2047.46 2138.7 2047.14 2138.94 2046.83 2139.23 2046.25 2139.55 2045.38Z" fill-rule="evenodd"/><text fill="#000000" fill-opacity="0" font-family="Arial,Arial_MSFontService,sans-serif" font-size="58.6431" x="2110.98" y="2096.69">5</text><path d="M1906.5 1350.5 1906.5 1985.12" stroke="#000000" stroke-width="6.875" stroke-miterlimit="8" fill="none" fill-rule="evenodd"/><path d="M1448.5 1817.5 2630.7 1817.5" stroke="#000000" stroke-width="6.875" stroke-miterlimit="8" fill="none" fill-rule="evenodd"/><path d="M2188.5 1350.5 2188.5 1985.12" stroke="#000000" stroke-width="6.875" stroke-miterlimit="8" fill="none" fill-rule="evenodd"/><path d="M1443.5 1683.5 2625.7 1683.5" stroke="#000000" stroke-width="6.875" stroke-miterlimit="8" fill="none" fill-rule="evenodd"/><rect x="2965" y="1419" width="802" height="566" fill="#83CBEB"/><path d="M2762.5 1557.5 3944.7 1557.5" stroke="#000000" stroke-width="6.875" stroke-miterlimit="8" fill="none" fill-rule="evenodd"/><path d="M3293.9 2098.43C3295.36 2098.43 3296.66 2098.6 3297.81 2098.94 3298.96 2099.28 3299.97 2099.8 3300.85 2100.5 3301.73 2101.2 3302.45 2102.07 3303.02 2103.11 3303.59 2104.15 3304.01 2105.4 3304.3 2106.86 3304.58 2108.32 3304.72 2110.17 3304.72 2112.42L3304.72 2127.69C3304.72 2129.56 3304.78 2130.91 3304.88 2131.75 3304.99 2132.58 3305.18 2133.23 3305.45 2133.69 3305.72 2134.15 3306.11 2134.54 3306.63 2134.85 3307.14 2135.16 3308.03 2135.49 3309.3 2135.84L3309.3 2137.83 3293.33 2137.83 3293.33 2135.84C3294.39 2135.52 3295.14 2135.23 3295.6 2134.99 3296.06 2134.75 3296.45 2134.41 3296.76 2133.98 3297.07 2133.54 3297.31 2132.88 3297.49 2131.97 3297.66 2131.06 3297.75 2129.69 3297.75 2127.86L3297.75 2117.24C3297.75 2115.35 3297.7 2113.63 3297.59 2112.09 3297.48 2110.55 3297.3 2109.29 3297.04 2108.3 3296.79 2107.32 3296.47 2106.55 3296.11 2105.99 3295.75 2105.44 3295.31 2104.97 3294.81 2104.57 3294.31 2104.18 3293.74 2103.87 3293.09 2103.64 3292.44 2103.41 3291.59 2103.3 3290.54 2103.3 3289.48 2103.3 3288.48 2103.51 3287.54 2103.93 3286.59 2104.34 3285.55 2105.07 3284.42 2106.09 3283.28 2107.12 3282.46 2108.13 3281.95 2109.13 3281.43 2110.13 3281.18 2111.28 3281.18 2112.58L3281.18 2127.69C3281.18 2130.02 3281.28 2131.63 3281.5 2132.54 3281.72 2133.44 3282.13 2134.13 3282.74 2134.6 3283.34 2135.08 3284.34 2135.49 3285.71 2135.84L3285.71 2137.83 3269.83 2137.83 3269.83 2135.84C3270.88 2135.52 3271.63 2135.23 3272.08 2134.99 3272.52 2134.75 3272.9 2134.41 3273.21 2133.98 3273.52 2133.54 3273.77 2132.88 3273.94 2131.99 3274.12 2131.1 3274.2 2129.71 3274.2 2127.82L3274.2 2110.15C3274.2 2108.42 3274.18 2107.03 3274.12 2105.97 3274.07 2104.92 3273.88 2104.07 3273.56 2103.44 3273.23 2102.8 3272.74 2102.33 3272.08 2102.02 3271.42 2101.71 3270.48 2101.45 3269.26 2101.23L3269.26 2099.08 3278.74 2098.72 3281.22 2098.72 3280.77 2105.32 3281.34 2105.49C3283.34 2103.46 3284.95 2102.01 3286.18 2101.15 3287.41 2100.28 3288.65 2099.62 3289.91 2099.14 3291.17 2098.67 3292.5 2098.43 3293.9 2098.43Z" fill-rule="evenodd"/><text fill="#000000" fill-opacity="0" font-family="Arial,Arial_MSFontService,sans-serif" font-size="39.3926" x="3269.26" y="2132.9">n</text><path d="M3340.69 2119.83 3390.61 2119.83 3390.61 2125.22 3340.69 2125.22ZM3340.69 2103.01 3390.61 2103.01 3390.61 2108.4 3340.69 2108.4Z" fill-rule="evenodd"/><text fill="#000000" fill-opacity="0" font-family="Arial,Arial_MSFontService,sans-serif" font-size="22.209" x="3340.69" y="2122.45">=</text><path d="M3444.28 2108.65C3442.96 2108.65 3441.68 2108.8 3440.45 2109.09 3439.22 2109.39 3438.07 2109.82 3436.99 2110.39 3435.91 2110.96 3434.85 2111.67 3433.83 2112.54 3433.5 2112.83 3433.26 2113.15 3433.1 2113.47 3432.83 2113.98 3432.65 2114.62 3432.57 2115.37 3432.49 2116.13 3432.45 2117.4 3432.45 2119.18 3432.45 2124.34 3433.31 2128.28 3435.04 2130.98 3436.77 2133.68 3439.39 2135.03 3442.9 2135.03 3444.93 2135.03 3446.63 2134.68 3448.01 2133.98 3449.39 2133.27 3450.5 2132.31 3451.35 2131.08 3452.2 2129.85 3452.81 2128.4 3453.18 2126.74 3453.54 2125.08 3453.72 2123.28 3453.72 2121.33 3453.72 2117.33 3452.9 2114.22 3451.25 2111.99 3449.6 2109.76 3447.28 2108.65 3444.28 2108.65ZM3454.7 2081.86 3456.36 2084.09 3456.36 2086.07C3452.2 2086.07 3448.51 2086.96 3445.29 2088.75 3442.08 2090.53 3439.41 2093.15 3437.29 2096.61 3435.17 2100.07 3433.68 2104.18 3432.81 2108.93L3433.22 2109.09C3435.49 2107.47 3437.72 2106.28 3439.93 2105.53 3442.13 2104.77 3444.51 2104.39 3447.08 2104.39 3450.13 2104.39 3452.73 2105.06 3454.88 2106.4 3457.03 2107.73 3458.64 2109.61 3459.72 2112.03 3460.8 2114.45 3461.34 2117.28 3461.34 2120.52 3461.34 2124.03 3460.67 2127.13 3459.32 2129.82 3457.97 2132.51 3455.88 2134.62 3453.06 2136.16 3450.23 2137.7 3446.75 2138.47 3442.62 2138.47 3436.7 2138.47 3432.24 2136.64 3429.23 2132.96 3426.21 2129.29 3424.71 2123.87 3424.71 2116.71 3424.71 2111.9 3425.46 2107.4 3426.98 2103.22 3428.49 2099.03 3430.64 2095.37 3433.42 2092.25 3436.2 2089.13 3439.43 2086.67 3443.11 2084.88 3446.78 2083.08 3450.64 2082.07 3454.7 2081.86Z" fill-rule="evenodd"/><text fill="#000000" fill-opacity="0" font-family="Arial,Arial_MSFontService,sans-serif" font-size="56.6167" x="3424.71" y="2131.4">6</text><path d="M3147.5 1385.5 3147.5 2020.12" stroke="#000000" stroke-width="6.875" stroke-miterlimit="8" fill="none" fill-rule="evenodd"/><path d="M2762.5 1851.5 3944.7 1851.5" stroke="#000000" stroke-width="6.875" stroke-miterlimit="8" fill="none" fill-rule="evenodd"/><path d="M3579.5 1385.5 3579.5 2020.12" stroke="#000000" stroke-width="6.875" stroke-miterlimit="8" fill="none" fill-rule="evenodd"/><path d="M2758.5 1717.5 3940.7 1717.5" stroke="#000000" stroke-width="6.875" stroke-miterlimit="8" fill="none" fill-rule="evenodd"/><path d="M3363.5 1379.5 3363.5 2014.12" stroke="#000000" stroke-width="6.875" stroke-miterlimit="8" fill="none" fill-rule="evenodd"/></g></svg>