<svg width="1811" height="948" xmlns="http://www.w3.org/2000/svg" xmlns:xlink="http://www.w3.org/1999/xlink" xml:space="preserve" overflow="hidden"><g transform="translate(-1108 -475)"><text font-family="Times New Roman,Times New Roman_MSFontService,sans-serif" font-weight="400" font-size="128" transform="matrix(1 0 0 1 1233.33 641)">5</text><path d="M1265.94 689.5 1265.94 1185.81 1259.06 1185.81 1259.06 689.5ZM1276.25 1181.22 1262.5 1208.72 1248.75 1181.22Z" fill="#13501B"/><text font-family="Times New Roman,Times New Roman_MSFontService,sans-serif" font-weight="400" font-size="110" transform="matrix(1 0 0 1 1179.48 1331)">101</text><text font-family="Times New Roman,Times New Roman_MSFontService,sans-serif" font-weight="400" font-size="128" transform="matrix(1 0 0 1 1984.59 641)">2</text><path d="M2016.94 689.5 2016.94 1185.81 2010.06 1185.81 2010.06 689.5ZM2027.25 1181.22 2013.5 1208.72 1999.75 1181.22Z" fill="#13501B"/><text font-family="Times New Roman,Times New Roman_MSFontService,sans-serif" font-weight="400" font-size="110" transform="matrix(1 0 0 1 1958.24 1331)">10</text><text font-family="Times New Roman,Times New Roman_MSFontService,sans-serif" font-weight="400" font-size="128" transform="matrix(1 0 0 1 2735.86 638)">1</text><path d="M2768.94 686.5 2768.94 1182.81 2762.06 1182.81 2762.06 686.5ZM2779.25 1178.22 2765.5 1205.72 2751.75 1178.22Z" fill="#13501B"/><text font-family="Times New Roman,Times New Roman_MSFontService,sans-serif" font-weight="400" font-size="110" transform="matrix(1 0 0 1 2737.01 1328)">1</text><path d="M1533 913.5 1692 913.5 1692 878 1763 949 1692 1020 1692 984.5 1533 984.5Z" fill="#C04F15" fill-rule="evenodd"/><path d="M2263 913.5 2422 913.5 2422 878 2493 949 2422 1020 2422 984.5 2263 984.5Z" fill="#C04F15" fill-rule="evenodd"/></g></svg>